<?xml version="1.0" encoding="UTF-8"?>
<svg id="Camada_1" xmlns="http://www.w3.org/2000/svg" version="1.1" viewBox="0 0 500 500">
  <!-- Generator: Adobe Illustrator 29.0.1, SVG Export Plug-In . SVG Version: 2.1.0 Build 192)  -->
  <defs>
    <style>
      .st0 {
        fill: #ff654d;
      }
    </style>
  </defs>
  <path class="st0" d="M220.98,142.71c12.65-1,38.42.03,49.76,5.65,4.51,2.24,6.36,8.05,2.02,11.13-4,2.84-24.38-3.56-31.09-4.06-111.64-8.33-169.12,130.95-83.5,203.5,77.76,65.88,196.58,3.24,189-98-.49-6.54-6.41-26.51-4.49-30.52,1.87-3.9,8.39-3.78,10.94.06,2.86,4.28,6.14,24.64,6.54,30.46,7.35,105.69-109.38,174.51-198.52,116.52-100.92-65.66-60.46-225.24,59.33-234.73Z"/>
  <path class="st0" d="M242.92,182.67c.89.83,2.29,4.64,2.1,6.01-1.07,7.55-12.17,4.32-17.33,4.74-69.96,5.74-98.04,95.2-41.43,137.4,49.3,36.75,117.93,4.89,122.9-55.93.45-5.5-3.07-18.09,6.44-17.48,10.87.69,5.53,26.82,3.9,33.81-14.41,61.83-89.11,88.22-140.24,50.59-55.98-41.2-44.33-129.2,19.93-154.9,8.35-3.34,37.11-10.44,43.73-4.26Z"/>
  <path class="st0" d="M322.17,180.42c8.73,1.35,27.08-5.05,24.81,9.28l-40.83,41.2-25.96,1.04-43.06,42.93c-7.07,4.78-14.19-2.31-9.41-9.41l42.93-43.06c2.21-7.11-1.84-21.31,1.96-27.04l40.27-39.75c14.37-2.24,7.9,16.2,9.28,24.81ZM284.18,201.91c-1.08,3.81.79,12.08,0,16.5h16.5c1.73,0,20.85-22.17,24.5-24.5-14.63.07-17.37-1.21-16.01-16.49-3.26,3.86-24.23,21.83-24.99,24.5Z"/>
  <path class="st0" d="M230.97,218.68c6.59.06,11.18,6.51,6.27,11.3-2,1.95-15.95,2.93-21.43,5.56-28.04,13.43-28.41,54.5-.66,68.42,21.27,10.66,48.42-.49,54.34-23.74,1.49-5.85.23-20.51,10.44-16.06,9.68,4.23-.79,28.64-5.31,35.19-25.18,36.53-83.14,24.61-92.18-18.68-6.23-29.83,17.04-62.27,48.53-61.98Z"/>
</svg>