<?xml version="1.0" encoding="UTF-8"?>
<svg id="Camada_1" xmlns="http://www.w3.org/2000/svg" version="1.1" viewBox="0 0 500 500">
  <!-- Generator: Adobe Illustrator 29.0.1, SVG Export Plug-In . SVG Version: 2.1.0 Build 192)  -->
  <defs>
    <style>
      .st0 {
        fill: #ff654d;
      }
    </style>
  </defs>
  <path class="st0" d="M237.91,190.71h24.31v-23.63c0-8.82,14.18-24.2,22.04-27.92,22.13-10.5,37.93-.05,52.2,15.8,20.8,23.12,44.43,52.25,63.47,76.97,11.34,14.72,20.43,26.82,22.62,46.26,7.92,70.41-74.87,114.55-127.93,67.16-5.96-5.33-9.08-13.52-16.78-14.28-18.52-1.82-40.35,1.28-59.22.36-36.61,51.21-118.21,41.57-137.72-19.48-17.36-54.33,26.35-85.54,55.77-123.26,4.41-2.64,8.72,1.83,7.54,6.11-.7,2.54-16.66,19.4-15.67,20.2,32.25-10.84,64.9-.78,86.4,25.03l8.12,11.44,2.77-38.42c7.32-32.19-32.96-58.11-59.95-42.39-4.07,2.37-8.55,10.14-10.67,11.07-5.93,2.6-9.18-1.94-6.51-7.99,1.19-2.69,19.28-24.42,22.19-27.11,18.24-16.81,45.6-14.64,60.29,5.61,1.52,2.1,6.76,13.18,6.76,14.85v23.63ZM227.09,175.86c1.45-22.16-20.99-36.04-41.01-26.84-2.34,1.07-11.01,5.93-8.25,7.96,18.7-4.54,36.76,5.7,49.26,18.89ZM322.97,154.28c-.33-.4-7.81-4.75-8.93-5.26-20.02-9.19-42.46,4.69-41.01,26.84,12.5-13.18,30.56-23.42,49.26-18.89,1.18.15.83-2.52.68-2.69ZM371.6,215.01c-9.88-11.67-19.34-26.1-29.74-37.09-26.21-27.68-74.32-2.18-67.54,35.13l2.77,38.42,8.12-11.44c21.5-25.81,54.14-35.86,86.4-25.03ZM263.57,200.17h-27.01l-1.35,17.56h29.71l-1.35-17.56ZM141.7,222.12c-71.49,9.67-71.79,125.09,5.07,131.97,98.61,8.83,97.62-145.86-5.07-131.97ZM333.46,222.12c-71.59,9.74-71.81,125.09,5.07,131.97,98.62,8.83,97.47-145.92-5.07-131.97ZM264.92,228.52h-29.71l-1.35,16.2h32.41l-1.35-16.2ZM275.72,320.35c-8.74-20.05-6.95-42.2-8.69-63.56-1.79-2.57-28.33-1.13-33.26-.68-3.24,21.01-.14,44-9.37,64.23h51.32Z"/>
  <path class="st0" d="M143.03,235.6c86.46-13.45,82.44,120.49-.8,104.14-55.33-10.87-52.72-95.81.8-104.14ZM149.83,245.11c-17.68,1.7-33.46,15.87-37.13,33.08-7.84,36.78,30.82,65.37,63.49,45.95,39.22-23.32,18.23-83.32-26.36-79.03Z"/>
  <path class="st0" d="M334.79,235.6c86.49-13.45,82.36,120.47-.8,104.14-55.48-10.9-52.65-95.82.8-104.14ZM341.59,245.11c-54.95,5.29-49.66,93.18,13.01,84.58,48.82-6.7,43.24-90-13.01-84.58Z"/>
  <path class="st0" d="M249.6,272.2c21.94-.62,20.15,34.16-2.83,30.52-15.89-2.52-16.27-29.98,2.83-30.52Z"/>
</svg>