<?xml version="1.0" encoding="UTF-8"?>
<svg id="Camada_1" xmlns="http://www.w3.org/2000/svg" version="1.1" viewBox="0 0 943.13 489.74">
  <!-- Generator: Adobe Illustrator 29.0.1, SVG Export Plug-In . SVG Version: 2.1.0 Build 192)  -->
  <defs>
    <style>
      .st0 {
        fill: #bab5ae;
      }
    </style>
  </defs>
  <circle class="st0" cx="510.16" cy="236.73" r="187.98"/>
  <g>
    <path class="st0" d="M196.62,343.65c-8.75,0-17.5.07-26.25-.03-5.93-.07-11.12-5.15-11.67-10.98-.62-6.63,3.79-12.18,9.67-13.45.7-.15,1.42-.2,2.13-.29,1.29-.17,1.67-.82,1.41-2.09-.31-1.54-.73-3.09-.74-4.64-.05-8.83,7.15-15.72,15.98-15.18,6,.37,10.3,3.45,12.92,8.87.11.23.21.47.32.7.48.98,1.07,1.21,2.09.88.87-.29,1.73-.64,2.62-.78,5.64-.88,10.75,2.38,12.38,7.85.11.38.22.78.4,1.13.39.76,1.06.83,1.84.7,6.76-1.1,13,2.57,15.35,8.99,2.93,8-2.39,16.91-10.85,18.16-.93.14-1.88.18-2.83.18-8.26.01-16.52,0-24.78,0,0,0,0-.02,0-.03Z"/>
    <path class="st0" d="M775.87,407.01c-14.25,0-28.5.12-42.75-.04-9.66-.11-18.12-8.39-19.01-17.88-1.02-10.8,6.17-19.84,15.75-21.9,1.14-.25,2.31-.32,3.46-.48,2.1-.28,2.72-1.33,2.3-3.41-.51-2.5-1.19-5.04-1.21-7.56-.08-14.39,11.64-25.6,26.02-24.72,9.77.6,16.78,5.62,21.05,14.44.18.38.33.77.52,1.15.78,1.6,1.74,1.98,3.41,1.43,1.41-.46,2.82-1.05,4.27-1.28,9.19-1.44,17.52,3.88,20.16,12.79.19.62.35,1.27.65,1.84.64,1.24,1.73,1.34,3,1.14,11-1.78,21.18,4.19,25,14.64,4.76,13.03-3.89,27.54-17.67,29.57-1.52.22-3.07.3-4.6.3-13.46.02-26.91.01-40.37.01,0-.01,0-.03,0-.04Z"/>
    <path class="st0" d="M827.47,296.42c-5.5,0-11.01.05-16.51-.02-3.73-.04-7-3.24-7.34-6.91-.39-4.17,2.39-7.66,6.08-8.46.44-.09.89-.13,1.34-.18.81-.11,1.05-.51.89-1.32-.2-.97-.46-1.95-.47-2.92-.03-5.56,4.5-9.89,10.05-9.55,3.77.23,6.48,2.17,8.13,5.58.07.15.13.3.2.44.3.62.67.76,1.32.55.55-.18,1.09-.41,1.65-.49,3.55-.56,6.77,1.5,7.79,4.94.07.24.14.49.25.71.25.48.67.52,1.16.44,4.25-.69,8.18,1.62,9.66,5.66,1.84,5.03-1.5,10.64-6.82,11.42-.59.09-1.18.11-1.78.12-5.2,0-10.4,0-15.59,0v-.02Z"/>
  </g>
</svg>