<?xml version="1.0" encoding="UTF-8"?>
<svg id="Camada_1" xmlns="http://www.w3.org/2000/svg" version="1.1" xmlns:xlink="http://www.w3.org/1999/xlink" viewBox="0 0 1111.66 500">
  <!-- Generator: Adobe Illustrator 29.0.1, SVG Export Plug-In . SVG Version: 2.1.0 Build 192)  -->
  <defs>
    <style>
      .st0 {
        fill: #00337c;
      }

      .st1 {
        fill: #0032ab;
      }

      .st2 {
        fill: none;
      }

      .st3 {
        clip-path: url(#clippath-1);
      }

      .st4 {
        fill: #ff654d;
      }

      .st5 {
        fill: #ff914d;
      }

      .st6 {
        fill: #1a75ce;
      }

      .st7 {
        fill: #ffbd59;
      }

      .st8 {
        clip-path: url(#clippath);
      }
    </style>
    <clipPath id="clippath">
      <rect class="st2" x="12.3" y="150.09" width="1080" height="159.93"/>
    </clipPath>
    <clipPath id="clippath-1">
      <rect class="st2" x="572.27" y="70.47" width="375.53" height="287.17"/>
    </clipPath>
  </defs>
  <g class="st8">
    <g>
      <polygon class="st5" points="212.29 110.03 212.29 70.04 232.29 90.03 252.29 110.03 212.29 110.03"/>
      <polygon class="st5" points="172.29 270.03 172.29 230.03 192.29 250.03 212.29 270.03 172.29 270.03"/>
      <polygon class="st4" points="12.3 270.03 12.3 230.03 32.3 250.03 52.3 270.03 12.3 270.03"/>
      <polygon class="st5" points="212.29 110.03 172.29 110.03 192.29 90.03 212.29 70.04 212.29 110.03"/>
      <polygon class="st5" points="172.29 150.03 132.29 150.03 152.29 130.03 172.29 110.03 172.29 150.03"/>
      <polygon class="st5" points="252.29 150.03 252.29 110.03 272.28 130.03 292.28 150.03 252.29 150.03"/>
      <polygon class="st4" points="52.3 70.04 52.3 30.04 72.3 50.04 92.29 70.04 52.3 70.04"/>
      <polygon class="st7" points="252.29 350.02 252.29 310.02 272.28 330.02 292.28 350.02 252.29 350.02"/>
      <polygon class="st5" points="132.29 70.04 92.29 70.04 112.29 50.04 132.29 30.04 132.29 70.04"/>
      <polygon class="st5" points="172.29 110.03 212.29 110.03 192.29 130.03 172.29 150.03 172.29 110.03"/>
      <polygon class="st5" points="132.29 230.03 172.29 230.03 152.29 250.03 132.29 270.03 132.29 230.03"/>
      <polygon class="st7" points="212.29 150.03 172.29 150.03 192.29 130.03 212.29 110.03 212.29 150.03"/>
      <polygon class="st7" points="212.29 150.03 212.29 110.03 232.29 130.03 252.29 150.03 212.29 150.03"/>
      <polygon class="st5" points="252.29 110.03 252.29 150.03 232.29 130.03 212.29 110.03 252.29 110.03"/>
      <path class="st5" d="M90.16,150.03h2.14v2.14c0,20.9-16.96,37.86-37.86,37.86h-2.14v-2.14c0-20.9,16.96-37.86,37.86-37.86Z"/>
      <path class="st7" d="M90.16,270.03h2.14v2.14c0,20.9-16.96,37.86-37.86,37.86h-2.14v-2.14c0-20.9,16.96-37.86,37.86-37.86Z" transform="translate(362.32 217.73) rotate(90)"/>
      <path class="st4" d="M290.15,230.03h2.14v2.14c0,20.9-16.96,37.86-37.86,37.86h-2.14v-2.14c0-20.9,16.96-37.86,37.86-37.86Z" transform="translate(544.57 500.05) rotate(-180)"/>
      <rect class="st4" x="92.29" y="-9.96" width="40" height="40"/>
      <rect class="st0" x="52.3" y="310.02" width="40" height="40"/>
      <rect class="st5" x="12.3" y="30.04" width="40" height="40"/>
      <rect class="st6" x="12.3" y="110.03" width="40" height="40"/>
      <rect class="st4" x="172.29" y="150.03" width="40" height="40"/>
      <rect class="st5" x="52.3" y="230.03" width="40" height="40"/>
      <rect class="st0" x="92.29" y="110.03" width="40" height="40"/>
      <rect class="st0" x="212.29" y="270.03" width="40" height="40"/>
      <path class="st6" d="M212.29,350.02h-2.14c-20.91,0-37.86-16.95-37.86-37.86v-2.14s40,0,40,0v40Z"/>
      <path class="st6" d="M214.43,350.02h-2.14s0-40,0-40h40s0,2.14,0,2.14c0,20.91-16.95,37.86-37.86,37.86Z"/>
      <path class="st1" d="M172.29,150.03v40s-2.14,0-2.14,0c-20.91,0-37.86-16.95-37.86-37.86v-2.14s40,0,40,0Z"/>
      <path class="st0" d="M172.29,30.04h-40s0-2.14,0-2.14c0-20.91,16.95-37.86,37.86-37.86h2.14s0,40,0,40Z"/>
      <path class="st0" d="M172.29,30.04V-9.96s2.14,0,2.14,0c20.91,0,37.86,16.95,37.86,37.86v2.14s-40,0-40,0Z"/>
      <path class="st6" d="M52.3,30.04H12.3s0-2.14,0-2.14c0-20.91,16.95-37.86,37.86-37.86h2.14s0,40,0,40Z"/>
      <path class="st4" d="M50.16,150.03h2.14v40H12.3v-2.14c0-20.9,16.96-37.86,37.86-37.86Z" transform="translate(-137.73 202.33) rotate(-90)"/>
      <path class="st6" d="M252.29,70.04V30.04s2.14,0,2.14,0c20.91,0,37.86,16.95,37.86,37.86v2.14s-40,0-40,0Z"/>
      <path class="st5" d="M90.16,70.04h2.14v40h-40v-2.14c0-20.9,16.96-37.86,37.86-37.86Z" transform="translate(-17.74 162.33) rotate(-90)"/>
      <polygon class="st6" points="32.3 190.03 52.3 230.03 12.3 230.03 32.3 190.03 32.3 190.03"/>
      <polygon class="st7" points="112.29 190.03 92.29 150.03 132.29 150.03 112.29 190.03 112.29 190.03"/>
      <polygon class="st5" points="112.29 170.03 102.29 150.03 122.29 150.03 112.29 170.03 112.29 170.03"/>
      <polygon class="st4" points="152.29 310.02 132.29 270.03 172.29 270.03 152.29 310.02 152.29 310.02"/>
      <polygon class="st0" points="152.29 290.02 142.29 270.03 162.29 270.03 152.29 290.02 152.29 290.02"/>
      <polygon class="st7" points="92.29 10.04 52.3 30.04 52.3 -9.96 92.29 10.04 92.29 10.04"/>
      <polygon class="st5" points="72.3 10.04 52.3 20.04 52.3 .04 72.3 10.04 72.3 10.04"/>
      <polygon class="st7" points="292.28 210.03 252.29 230.03 252.29 190.03 292.28 210.03 292.28 210.03"/>
      <polygon class="st4" points="272.28 210.03 252.29 220.03 252.29 200.03 272.28 210.03 272.28 210.03"/>
      <rect class="st5" x="212.29" y="-9.96" width="40" height="40" rx="18.93" ry="18.93"/>
      <rect class="st6" x="172.29" y="190.03" width="40" height="40" rx="18.93" ry="18.93"/>
      <rect class="st0" x="212.29" y="230.03" width="40" height="40" rx="18.93" ry="18.93"/>
      <rect class="st6" x="172.29" y="270.03" width="40" height="40" rx="18.93" ry="18.93"/>
      <rect class="st0" x="12.3" y="70.04" width="40" height="40" rx="18.93" ry="18.93"/>
      <path class="st6" d="M252.29,30.04h0V10.04s0,0,0,0c11.04,0,20-8.95,20-20h0s20,0,20,0h0c0,22.09-17.91,40-40,40Z"/>
      <path class="st0" d="M252.29,10.04h0V-9.96s20,0,20,0h0c0,11.04-8.95,20-20,20Z"/>
      <path class="st0" d="M132.29,230.03h0s0,20,0,20h0c-11.04,0-20,8.95-20,20h0s-20,0-20,0h0c0-22.09,17.91-40,40-40Z"/>
      <path class="st6" d="M132.29,250.03h0s0,20,0,20h-20s0,0,0,0c0-11.04,8.95-20,20-20Z"/>
      <path class="st6" d="M92.29,270.03h0s20,0,20,0h0c0,11.05,8.95,20,20,20h0v20h0c-22.09,0-40-17.91-40-40Z"/>
      <path class="st0" d="M112.29,270.03h0s20,0,20,0v20h0c-11.04,0-20-8.95-20-20Z"/>
      <path class="st4" d="M12.3,310.03h0s20,0,20,0h0c0,11.05,8.95,20,20,20h0v20h0c-22.09,0-40-17.91-40-40Z"/>
      <path class="st5" d="M32.3,310.03h0s20,0,20,0v20h0c-11.04,0-20-8.95-20-20Z"/>
      <path class="st7" d="M292.28,190.03h0s-20,0-20,0h0c0-11.05-8.95-20-20-20h0v-20h0c22.09,0,40,17.91,40,40Z"/>
      <path class="st4" d="M272.28,190.03h0s-20,0-20,0v-20h0c11.04,0,20,8.95,20,20Z"/>
      <rect class="st5" x="132.29" y="70.04" width="40" height="40"/>
      <rect class="st7" x="140.72" y="78.46" width="23.15" height="23.15" transform="translate(242.33 -62.26) rotate(90)"/>
      <rect class="st0" x="132.29" y="310.02" width="40" height="40"/>
      <rect class="st4" x="140.72" y="318.45" width="23.15" height="23.15" transform="translate(482.31 177.73) rotate(90)"/>
      <rect class="st5" x="252.29" y="70.04" width="40" height="40" rx="18.93" ry="18.93"/>
      <path class="st1" d="M272.28,101.61c-6.38,0-11.57-5.19-11.57-11.57,0-6.38,5.19-11.57,11.57-11.57,6.38,0,11.57,5.19,11.57,11.57s-5.19,11.57-11.57,11.57Z"/>
      <rect class="st0" x="12.3" y="270.03" width="40" height="40" rx="18.93" ry="18.93"/>
      <path class="st5" d="M32.3,301.6c-6.38,0-11.57-5.19-11.57-11.57,0-6.38,5.19-11.57,11.57-11.57,6.38,0,11.57,5.19,11.57,11.57,0,6.38-5.19,11.57-11.57,11.57Z"/>
      <rect class="st0" x="212.29" y="150.03" width="40" height="40" rx="18.93" ry="18.93"/>
      <path class="st6" d="M232.29,181.6c-6.38,0-11.57-5.19-11.57-11.57,0-6.38,5.19-11.57,11.57-11.57,6.38,0,11.57,5.19,11.57,11.57s-5.19,11.57-11.57,11.57Z"/>
      <path class="st4" d="M92.29,190.03v10h0c5.52,0,10,4.48,10,10h0c0,5.52-4.48,10-10,10h0v10s40-20,40-20l-40-20Z"/>
      <path class="st7" d="M92.29,230.03v-10h0c-5.52,0-10-4.48-10-10h0c0-5.52,4.48-10,10-10h0v-10s-40,20-40,20l40,20Z"/>
      <path class="st6" d="M172.29,70.04v-10h0c-5.52,0-10-4.48-10-10h0c0-5.52,4.48-10,10-10h0v-10s-40,20-40,20l40,20Z"/>
      <path class="st1" d="M172.29,30.04v10h0c5.52,0,10,4.48,10,10h0c0,5.52-4.48,10-10,10h0v10s40-20,40-20l-40-20Z"/>
      <path class="st7" d="M250.59,55.25c-1.66,2.13-4.08,3.2-6.5,3.2-2.1,0-4.19-.8-5.79-2.4,3.2,3.2,3.2,8.39,0,11.59-1.6,1.6-3.69,2.4-5.79,2.4-2.1,0-4.2-.8-5.8-2.4-1.6-1.6-2.4-3.7-2.4-5.79,0-2.09.8-4.19,2.4-5.79-1.6,1.6-3.7,2.4-5.79,2.4-2.09,0-4.19-.8-5.79-2.4-1.6-1.6-2.4-3.7-2.4-5.8,0-2.09.8-4.19,2.4-5.79,1.6-1.6,3.7-2.4,5.79-2.4,2.09,0,4.19.8,5.79,2.4-1.6-1.6-2.4-3.69-2.4-5.79s.8-4.19,2.4-5.79,3.7-2.4,5.8-2.4c2.1,0,4.19.8,5.79,2.4,3.2,3.2,3.2,8.39,0,11.59,1.6-1.6,3.69-2.4,5.79-2.4,2.43,0,4.84,1.07,6.5,3.2,2.26,2.91,2.26,7.08,0,9.99Z"/>
      <path class="st4" d="M90.58,135.08c-1.68,2.16-4.12,3.24-6.57,3.24-2.12,0-4.24-.81-5.86-2.43,3.23,3.23,3.23,8.48,0,11.71-1.62,1.62-3.73,2.43-5.86,2.43s-4.25-.81-5.86-2.43c-1.62-1.62-2.43-3.74-2.43-5.86,0-2.12.81-4.24,2.43-5.86-1.62,1.62-3.74,2.43-5.86,2.43-2.12,0-4.24-.81-5.86-2.43-1.62-1.62-2.43-3.74-2.43-5.86,0-2.12.81-4.24,2.43-5.86,1.62-1.62,3.74-2.43,5.86-2.43s4.24.81,5.86,2.43c-1.62-1.62-2.43-3.73-2.43-5.86,0-2.12.81-4.24,2.43-5.86,1.62-1.62,3.74-2.43,5.86-2.43s4.24.81,5.86,2.43c3.23,3.23,3.23,8.48,0,11.71,1.62-1.62,3.73-2.43,5.86-2.43,2.45,0,4.9,1.08,6.57,3.24,2.28,2.94,2.28,7.16,0,10.1Z"/>
      <path class="st0" d="M170.58,215.08c-1.68,2.16-4.12,3.24-6.57,3.24-2.12,0-4.24-.81-5.86-2.43,3.23,3.23,3.23,8.48,0,11.71-1.62,1.62-3.73,2.43-5.86,2.43-2.12,0-4.25-.81-5.86-2.43-1.62-1.62-2.43-3.74-2.43-5.86,0-2.12.81-4.24,2.43-5.86-1.62,1.62-3.74,2.43-5.86,2.43-2.12,0-4.24-.81-5.86-2.43-1.62-1.62-2.43-3.74-2.43-5.86,0-2.12.81-4.24,2.43-5.86,1.62-1.62,3.74-2.43,5.86-2.43,2.12,0,4.24.81,5.86,2.43-1.62-1.62-2.43-3.73-2.43-5.86,0-2.12.81-4.24,2.43-5.86,1.62-1.62,3.74-2.43,5.86-2.43,2.12,0,4.24.81,5.86,2.43,3.23,3.23,3.23,8.48,0,11.71,1.62-1.62,3.73-2.43,5.86-2.43,2.45,0,4.9,1.08,6.57,3.24,2.28,2.94,2.28,7.16,0,10.1Z"/>
      <path class="st7" d="M290.57,295.07c-1.68,2.16-4.12,3.24-6.57,3.24-2.12,0-4.24-.81-5.86-2.43,3.23,3.23,3.23,8.48,0,11.71-1.62,1.62-3.73,2.43-5.86,2.43s-4.25-.81-5.86-2.43c-1.62-1.62-2.43-3.74-2.43-5.86s.81-4.24,2.43-5.86c-1.62,1.62-3.74,2.43-5.86,2.43-2.12,0-4.24-.81-5.86-2.43-1.62-1.62-2.43-3.74-2.43-5.86,0-2.12.81-4.24,2.43-5.86,1.62-1.62,3.74-2.43,5.86-2.43,2.12,0,4.24.81,5.86,2.43-1.62-1.62-2.43-3.73-2.43-5.86,0-2.12.81-4.24,2.43-5.86,1.62-1.62,3.74-2.43,5.86-2.43s4.24.81,5.86,2.43c3.23,3.23,3.23,8.48,0,11.71,1.62-1.62,3.73-2.43,5.86-2.43,2.45,0,4.9,1.08,6.57,3.24,2.28,2.94,2.28,7.16,0,10.1Z"/>
      <circle class="st7" cx="147.29" cy="20.04" r="5"/>
      <path class="st0" d="M132.29,310.02v40s-2.14,0-2.14,0c-20.91,0-37.86-16.95-37.86-37.86v-2.14s40,0,40,0Z"/>
      <circle class="st7" cx="122.29" cy="335.02" r="5"/>
      <path class="st4" d="M250.15,190.03h2.14v40h-40v-2.14c0-20.9,16.96-37.86,37.86-37.86Z"/>
      <circle class="st0" cx="227.29" cy="220.03" r="5"/>
      <circle class="st0" cx="77.3" cy="85.04" r="5"/>
      <path class="st4" d="M130.15,70.04h2.14v40h-40v-2.14c0-20.9,16.96-37.86,37.86-37.86Z" transform="translate(224.59 180.07) rotate(180)"/>
      <circle class="st0" cx="107.29" cy="85.04" r="5"/>
    </g>
    <g>
      <polygon class="st5" points="492.27 230.03 492.27 190.03 512.27 210.03 532.27 230.03 492.27 230.03"/>
      <polygon class="st5" points="452.28 390.02 452.28 350.02 472.27 370.02 492.27 390.02 452.28 390.02"/>
      <polygon class="st4" points="292.28 390.02 292.28 350.02 312.28 370.02 332.28 390.02 292.28 390.02"/>
      <polygon class="st5" points="492.27 230.03 452.28 230.03 472.27 210.03 492.27 190.03 492.27 230.03"/>
      <polygon class="st5" points="452.28 270.03 412.28 270.03 432.28 250.03 452.28 230.03 452.28 270.03"/>
      <polygon class="st5" points="532.27 270.03 532.27 230.03 552.27 250.03 572.27 270.03 532.27 270.03"/>
      <polygon class="st4" points="332.28 190.03 332.28 150.03 352.28 170.03 372.28 190.03 332.28 190.03"/>
      <polygon class="st7" points="532.27 470.01 532.27 430.02 552.27 450.02 572.27 470.01 532.27 470.01"/>
      <polygon class="st5" points="412.28 190.03 372.28 190.03 392.28 170.03 412.28 150.03 412.28 190.03"/>
      <polygon class="st5" points="452.28 230.03 492.27 230.03 472.27 250.03 452.28 270.03 452.28 230.03"/>
      <polygon class="st5" points="412.28 350.02 452.28 350.02 432.28 370.02 412.28 390.02 412.28 350.02"/>
      <polygon class="st7" points="492.27 270.03 452.28 270.03 472.27 250.03 492.27 230.03 492.27 270.03"/>
      <polygon class="st7" points="492.27 270.03 492.27 230.03 512.27 250.03 532.27 270.03 492.27 270.03"/>
      <polygon class="st5" points="532.27 230.03 532.27 270.03 512.27 250.03 492.27 230.03 532.27 230.03"/>
      <path class="st5" d="M370.14,270.03h2.14v2.14c0,20.9-16.96,37.86-37.86,37.86h-2.14v-2.14c0-20.9,16.96-37.86,37.86-37.86Z"/>
      <path class="st7" d="M370.14,390.02h2.14v2.14c0,20.9-16.96,37.86-37.86,37.86h-2.14v-2.14c0-20.9,16.96-37.86,37.86-37.86Z" transform="translate(762.3 57.74) rotate(90)"/>
      <path class="st4" d="M570.13,350.02h2.14v2.14c0,20.9-16.96,37.86-37.86,37.86h-2.14v-2.14c0-20.9,16.96-37.86,37.86-37.86Z" transform="translate(1104.54 740.04) rotate(-180)"/>
      <rect class="st4" x="372.28" y="110.03" width="40" height="40"/>
      <rect class="st0" x="332.28" y="430.02" width="40" height="40"/>
      <rect class="st5" x="292.28" y="150.03" width="40" height="40"/>
      <rect class="st6" x="292.28" y="230.03" width="40" height="40"/>
      <rect class="st4" x="452.28" y="270.03" width="40" height="40"/>
      <rect class="st5" x="332.28" y="350.02" width="40" height="40"/>
      <rect class="st0" x="372.28" y="230.03" width="40" height="40"/>
      <rect class="st0" x="492.27" y="390.02" width="40" height="40"/>
      <path class="st6" d="M492.27,470.01h-2.14c-20.91,0-37.86-16.95-37.86-37.86v-2.14s40,0,40,0v40Z"/>
      <path class="st6" d="M494.41,470.01h-2.14s0-40,0-40h40s0,2.14,0,2.14c0,20.91-16.95,37.86-37.86,37.86Z"/>
      <path class="st1" d="M452.28,270.03v40s-2.14,0-2.14,0c-20.91,0-37.86-16.95-37.86-37.86v-2.14s40,0,40,0Z"/>
      <path class="st0" d="M452.28,150.03h-40s0-2.14,0-2.14c0-20.91,16.95-37.86,37.86-37.86h2.14s0,40,0,40Z"/>
      <path class="st0" d="M452.28,150.03v-40s2.14,0,2.14,0c20.91,0,37.86,16.95,37.86,37.86v2.14s-40,0-40,0Z"/>
      <path class="st6" d="M332.28,150.03h-40s0-2.14,0-2.14c0-20.91,16.95-37.86,37.86-37.86h2.14s0,40,0,40Z"/>
      <path class="st4" d="M330.14,270.03h2.14v40h-40v-2.14c0-20.9,16.96-37.86,37.86-37.86Z" transform="translate(22.26 602.31) rotate(-90)"/>
      <path class="st6" d="M532.27,190.03v-40s2.14,0,2.14,0c20.91,0,37.86,16.95,37.86,37.86v2.14s-40,0-40,0Z"/>
      <path class="st5" d="M370.14,190.03h2.14v40h-40v-2.14c0-20.9,16.96-37.86,37.86-37.86Z" transform="translate(142.25 562.31) rotate(-90)"/>
      <polygon class="st6" points="312.28 310.02 332.28 350.02 292.28 350.02 312.28 310.02 312.28 310.02"/>
      <polygon class="st7" points="392.28 310.02 372.28 270.03 412.28 270.03 392.28 310.02 392.28 310.02"/>
      <polygon class="st5" points="392.28 290.02 382.28 270.03 402.28 270.03 392.28 290.02 392.28 290.02"/>
      <polygon class="st4" points="432.28 430.02 412.28 390.02 452.28 390.02 432.28 430.02 432.28 430.02"/>
      <polygon class="st0" points="432.28 410.02 422.28 390.02 442.28 390.02 432.28 410.02 432.28 410.02"/>
      <polygon class="st7" points="372.28 130.03 332.28 150.03 332.28 110.03 372.28 130.03 372.28 130.03"/>
      <polygon class="st5" points="352.28 130.03 332.28 140.03 332.28 120.03 352.28 130.03 352.28 130.03"/>
      <polygon class="st7" points="572.27 330.02 532.27 350.02 532.27 310.02 572.27 330.02 572.27 330.02"/>
      <polygon class="st4" points="552.27 330.02 532.27 340.02 532.27 320.02 552.27 330.02 552.27 330.02"/>
      <rect class="st5" x="492.27" y="110.03" width="40" height="40" rx="18.93" ry="18.93"/>
      <rect class="st6" x="452.28" y="310.02" width="40" height="40" rx="18.93" ry="18.93"/>
      <rect class="st0" x="492.27" y="350.02" width="40" height="40" rx="18.93" ry="18.93"/>
      <rect class="st6" x="452.28" y="390.02" width="40" height="40" rx="18.93" ry="18.93"/>
      <rect class="st0" x="292.28" y="190.03" width="40" height="40" rx="18.93" ry="18.93"/>
      <path class="st6" d="M532.27,150.03h0v-20s0,0,0,0c11.04,0,20-8.95,20-20h0s20,0,20,0h0c0,22.09-17.91,40-40,40Z"/>
      <path class="st0" d="M532.27,130.03h0s0-20,0-20h20s0,0,0,0c0,11.04-8.95,20-20,20Z"/>
      <path class="st0" d="M412.27,350.02h0s0,20,0,20h0c-11.04,0-20,8.95-20,20h0s-20,0-20,0h0c0-22.09,17.91-40,40-40Z"/>
      <path class="st6" d="M412.27,370.02h0s0,20,0,20h-20s0,0,0,0c0-11.04,8.95-20,20-20Z"/>
      <path class="st6" d="M372.28,390.02h0s20,0,20,0h0c0,11.05,8.95,20,20,20h0v20h0c-22.09,0-40-17.91-40-40Z"/>
      <path class="st0" d="M392.28,390.02h0s20,0,20,0v20h0c-11.04,0-20-8.95-20-20Z"/>
      <path class="st4" d="M292.28,430.02h0s20,0,20,0h0c0,11.05,8.95,20,20,20h0v20h0c-22.09,0-40-17.91-40-40Z"/>
      <path class="st5" d="M312.28,430.02h0s20,0,20,0v20h0c-11.04,0-20-8.95-20-20Z"/>
      <path class="st7" d="M572.27,310.02h0s-20,0-20,0h0c0-11.05-8.95-20-20-20h0v-20h0c22.09,0,40,17.91,40,40Z"/>
      <path class="st4" d="M552.27,310.02h0s-20,0-20,0v-20h0c11.04,0,20,8.95,20,20Z"/>
      <rect class="st5" x="412.28" y="190.03" width="40" height="40"/>
      <rect class="st7" x="420.7" y="198.45" width="23.15" height="23.15" transform="translate(642.3 -222.25) rotate(90)"/>
      <rect class="st0" x="412.28" y="430.02" width="40" height="40"/>
      <rect class="st4" x="420.7" y="438.44" width="23.15" height="23.15" transform="translate(882.29 17.74) rotate(90)"/>
      <rect class="st5" x="532.27" y="190.03" width="40" height="40" rx="18.93" ry="18.93"/>
      <path class="st1" d="M552.27,221.6c-6.38,0-11.57-5.19-11.57-11.57,0-6.38,5.19-11.57,11.57-11.57,6.38,0,11.57,5.19,11.57,11.57,0,6.38-5.19,11.57-11.57,11.57Z"/>
      <rect class="st0" x="292.28" y="390.02" width="40" height="40" rx="18.93" ry="18.93"/>
      <path class="st5" d="M312.28,421.59c-6.38,0-11.57-5.19-11.57-11.57,0-6.38,5.19-11.57,11.57-11.57,6.38,0,11.57,5.19,11.57,11.57s-5.19,11.57-11.57,11.57Z"/>
      <rect class="st0" x="492.27" y="270.03" width="40" height="40" rx="18.93" ry="18.93"/>
      <path class="st6" d="M512.27,301.6c-6.38,0-11.57-5.19-11.57-11.57s5.19-11.57,11.57-11.57c6.38,0,11.57,5.19,11.57,11.57s-5.19,11.57-11.57,11.57Z"/>
      <path class="st4" d="M372.28,310.02v10h0c5.52,0,10,4.48,10,10h0c0,5.52-4.48,10-10,10h0v10s40-20,40-20l-40-20Z"/>
      <path class="st7" d="M372.28,350.02v-10h0c-5.52,0-10-4.48-10-10h0c0-5.52,4.48-10,10-10h0v-10s-40,20-40,20l40,20Z"/>
      <path class="st6" d="M452.28,190.03v-10h0c-5.52,0-10-4.48-10-10h0c0-5.52,4.48-10,10-10h0v-10s-40,20-40,20l40,20Z"/>
      <path class="st1" d="M452.28,150.03v10h0c5.52,0,10,4.48,10,10h0c0,5.52-4.48,10-10,10h0v10s40-20,40-20l-40-20Z"/>
      <path class="st7" d="M530.58,175.24c-1.66,2.13-4.08,3.2-6.5,3.2-2.1,0-4.19-.8-5.79-2.4,3.2,3.2,3.2,8.39,0,11.59-1.6,1.6-3.69,2.4-5.79,2.4-2.1,0-4.2-.8-5.8-2.4-1.6-1.6-2.4-3.7-2.4-5.79,0-2.09.8-4.19,2.4-5.79-1.6,1.6-3.7,2.4-5.79,2.4-2.09,0-4.19-.8-5.79-2.4-1.6-1.6-2.4-3.7-2.4-5.8,0-2.09.8-4.19,2.4-5.79,1.6-1.6,3.7-2.4,5.79-2.4s4.19.8,5.79,2.4c-1.6-1.6-2.4-3.69-2.4-5.79,0-2.1.8-4.19,2.4-5.79,1.6-1.6,3.7-2.4,5.8-2.4,2.1,0,4.19.8,5.79,2.4,3.2,3.2,3.2,8.39,0,11.59,1.6-1.6,3.69-2.4,5.79-2.4,2.43,0,4.84,1.07,6.5,3.2,2.26,2.91,2.26,7.08,0,9.99Z"/>
      <path class="st4" d="M370.57,255.08c-1.68,2.16-4.12,3.24-6.57,3.24-2.12,0-4.24-.81-5.86-2.43,3.23,3.23,3.23,8.48,0,11.71-1.62,1.62-3.73,2.43-5.86,2.43s-4.25-.81-5.86-2.43c-1.62-1.62-2.43-3.74-2.43-5.86s.81-4.24,2.43-5.86c-1.62,1.62-3.74,2.43-5.86,2.43-2.12,0-4.24-.81-5.86-2.43-1.62-1.62-2.43-3.74-2.43-5.86s.81-4.24,2.43-5.86c1.62-1.62,3.74-2.43,5.86-2.43,2.12,0,4.24.81,5.86,2.43-1.62-1.62-2.43-3.73-2.43-5.86,0-2.12.81-4.24,2.43-5.86,1.62-1.62,3.74-2.43,5.86-2.43s4.24.81,5.86,2.43c3.23,3.23,3.23,8.48,0,11.71,1.62-1.62,3.73-2.43,5.86-2.43,2.45,0,4.9,1.08,6.57,3.24,2.28,2.94,2.28,7.16,0,10.1Z"/>
      <path class="st0" d="M450.56,335.07c-1.68,2.16-4.12,3.24-6.57,3.24-2.12,0-4.24-.81-5.86-2.43,3.23,3.23,3.23,8.48,0,11.71-1.62,1.62-3.73,2.43-5.86,2.43-2.12,0-4.25-.81-5.86-2.43-1.62-1.62-2.43-3.74-2.43-5.86,0-2.12.81-4.24,2.43-5.86-1.62,1.62-3.74,2.43-5.86,2.43-2.12,0-4.24-.81-5.86-2.43-1.62-1.62-2.43-3.74-2.43-5.86,0-2.12.81-4.24,2.43-5.86,1.62-1.62,3.74-2.43,5.86-2.43s4.24.81,5.86,2.43c-1.62-1.62-2.43-3.73-2.43-5.86,0-2.12.81-4.24,2.43-5.86,1.62-1.62,3.74-2.43,5.86-2.43s4.24.81,5.86,2.43c3.23,3.23,3.23,8.48,0,11.71,1.62-1.62,3.73-2.43,5.86-2.43,2.45,0,4.9,1.08,6.57,3.24,2.28,2.94,2.28,7.16,0,10.1Z"/>
      <path class="st7" d="M570.56,415.07c-1.68,2.16-4.12,3.24-6.57,3.24-2.12,0-4.24-.81-5.86-2.43,3.23,3.23,3.23,8.48,0,11.71-1.62,1.62-3.73,2.43-5.86,2.43s-4.25-.81-5.86-2.43c-1.62-1.62-2.43-3.74-2.43-5.86,0-2.12.81-4.24,2.43-5.86-1.62,1.62-3.74,2.43-5.86,2.43-2.12,0-4.24-.81-5.86-2.43-1.62-1.62-2.43-3.74-2.43-5.86,0-2.12.81-4.24,2.43-5.86,1.62-1.62,3.74-2.43,5.86-2.43s4.24.81,5.86,2.43c-1.62-1.62-2.43-3.73-2.43-5.86,0-2.12.81-4.24,2.43-5.86,1.62-1.62,3.74-2.43,5.86-2.43s4.24.81,5.86,2.43c3.23,3.23,3.23,8.48,0,11.71,1.62-1.62,3.73-2.43,5.86-2.43,2.45,0,4.9,1.08,6.57,3.24,2.28,2.94,2.28,7.16,0,10.1Z"/>
      <circle class="st7" cx="427.28" cy="140.03" r="5"/>
      <path class="st0" d="M412.28,430.02v40s-2.14,0-2.14,0c-20.91,0-37.86-16.95-37.86-37.86v-2.14s40,0,40,0Z"/>
      <circle class="st7" cx="402.28" cy="455.01" r="5"/>
      <path class="st4" d="M530.13,310.02h2.14v40h-40v-2.14c0-20.9,16.96-37.86,37.86-37.86Z"/>
      <circle class="st0" cx="507.27" cy="340.02" r="5"/>
      <circle class="st0" cx="357.28" cy="205.03" r="5"/>
      <path class="st4" d="M410.14,190.03h2.14v40h-40v-2.14c0-20.9,16.96-37.86,37.86-37.86Z" transform="translate(784.56 420.06) rotate(180)"/>
      <circle class="st0" cx="387.28" cy="205.03" r="5"/>
    </g>
    <g>
      <polygon class="st5" points="1012.3 230.03 1012.3 190.03 1032.3 210.03 1052.3 230.03 1012.3 230.03"/>
      <polygon class="st5" points="972.3 390.02 972.3 350.02 992.3 370.02 1012.3 390.02 972.3 390.02"/>
      <polygon class="st4" points="812.31 390.02 812.31 350.02 832.31 370.02 852.31 390.02 812.31 390.02"/>
      <polygon class="st5" points="1012.3 230.03 972.3 230.03 992.3 210.03 1012.3 190.03 1012.3 230.03"/>
      <polygon class="st5" points="972.3 270.03 932.31 270.03 952.31 250.03 972.3 230.03 972.3 270.03"/>
      <polygon class="st5" points="1052.3 270.03 1052.3 230.03 1072.3 250.03 1092.3 270.03 1052.3 270.03"/>
      <polygon class="st4" points="852.31 190.03 852.31 150.03 872.31 170.03 892.31 190.03 852.31 190.03"/>
      <polygon class="st7" points="1052.3 470.01 1052.3 430.02 1072.3 450.02 1092.3 470.01 1052.3 470.01"/>
      <polygon class="st5" points="932.31 190.03 892.31 190.03 912.31 170.03 932.31 150.03 932.31 190.03"/>
      <polygon class="st5" points="972.3 230.03 1012.3 230.03 992.3 250.03 972.3 270.03 972.3 230.03"/>
      <polygon class="st5" points="932.31 350.02 972.3 350.02 952.31 370.02 932.31 390.02 932.31 350.02"/>
      <polygon class="st7" points="1012.3 270.03 972.3 270.03 992.3 250.03 1012.3 230.03 1012.3 270.03"/>
      <polygon class="st7" points="1012.3 270.03 1012.3 230.03 1032.3 250.03 1052.3 270.03 1012.3 270.03"/>
      <polygon class="st5" points="1052.3 230.03 1052.3 270.03 1032.3 250.03 1012.3 230.03 1052.3 230.03"/>
      <path class="st5" d="M890.17,270.03h2.14v2.14c0,20.9-16.96,37.86-37.86,37.86h-2.14v-2.14c0-20.9,16.96-37.86,37.86-37.86Z"/>
      <path class="st7" d="M890.17,390.02h2.14v2.14c0,20.9-16.96,37.86-37.86,37.86h-2.14v-2.14c0-20.9,16.96-37.86,37.86-37.86Z" transform="translate(1282.33 -462.29) rotate(90)"/>
      <path class="st4" d="M1090.16,350.02h2.14v2.14c0,20.9-16.96,37.86-37.86,37.86h-2.14v-2.14c0-20.9,16.96-37.86,37.86-37.86Z" transform="translate(2144.6 740.04) rotate(-180)"/>
      <rect class="st4" x="892.31" y="110.03" width="40" height="40"/>
      <rect class="st0" x="852.31" y="430.02" width="40" height="40"/>
      <rect class="st5" x="812.31" y="150.03" width="40" height="40"/>
      <rect class="st6" x="812.31" y="230.03" width="40" height="40"/>
      <rect class="st4" x="972.3" y="270.03" width="40" height="40"/>
      <rect class="st5" x="852.31" y="350.02" width="40" height="40"/>
      <rect class="st0" x="892.31" y="230.03" width="40" height="40"/>
      <rect class="st0" x="1012.3" y="390.02" width="40" height="40"/>
      <path class="st6" d="M1012.3,470.01h-2.14c-20.91,0-37.86-16.95-37.86-37.86v-2.14s40,0,40,0v40Z"/>
      <path class="st6" d="M1014.44,470.01h-2.14s0-40,0-40h40s0,2.14,0,2.14c0,20.91-16.95,37.86-37.86,37.86Z"/>
      <path class="st1" d="M972.3,270.03v40s-2.14,0-2.14,0c-20.91,0-37.86-16.95-37.86-37.86v-2.14s40,0,40,0Z"/>
      <path class="st0" d="M972.3,150.03h-40s0-2.14,0-2.14c0-20.91,16.95-37.86,37.86-37.86h2.14s0,40,0,40Z"/>
      <path class="st0" d="M972.3,150.03v-40s2.14,0,2.14,0c20.91,0,37.86,16.95,37.86,37.86v2.14s-40,0-40,0Z"/>
      <path class="st6" d="M852.31,150.03h-40s0-2.14,0-2.14c0-20.91,16.95-37.86,37.86-37.86h2.14s0,40,0,40Z"/>
      <path class="st4" d="M850.17,270.03h2.14v40h-40v-2.14c0-20.9,16.96-37.86,37.86-37.86Z" transform="translate(542.29 1122.34) rotate(-90)"/>
      <path class="st6" d="M1052.3,190.03v-40s2.14,0,2.14,0c20.91,0,37.86,16.95,37.86,37.86v2.14s-40,0-40,0Z"/>
      <path class="st5" d="M890.17,190.03h2.14v40h-40v-2.14c0-20.9,16.96-37.86,37.86-37.86Z" transform="translate(662.28 1082.34) rotate(-90)"/>
      <polygon class="st6" points="832.31 310.02 852.31 350.02 812.31 350.02 832.31 310.02 832.31 310.02"/>
      <polygon class="st7" points="912.31 310.02 892.31 270.03 932.31 270.03 912.31 310.02 912.31 310.02"/>
      <polygon class="st5" points="912.31 290.02 902.31 270.03 922.31 270.03 912.31 290.02 912.31 290.02"/>
      <polygon class="st4" points="952.31 430.02 932.31 390.02 972.3 390.02 952.31 430.02 952.31 430.02"/>
      <polygon class="st0" points="952.31 410.02 942.31 390.02 962.3 390.02 952.31 410.02 952.31 410.02"/>
      <polygon class="st7" points="892.31 130.03 852.31 150.03 852.31 110.03 892.31 130.03 892.31 130.03"/>
      <polygon class="st5" points="872.31 130.03 852.31 140.03 852.31 120.03 872.31 130.03 872.31 130.03"/>
      <polygon class="st7" points="1092.3 330.02 1052.3 350.02 1052.3 310.02 1092.3 330.02 1092.3 330.02"/>
      <polygon class="st4" points="1072.3 330.02 1052.3 340.02 1052.3 320.02 1072.3 330.02 1072.3 330.02"/>
      <rect class="st5" x="1012.3" y="110.03" width="40" height="40" rx="18.93" ry="18.93"/>
      <rect class="st6" x="972.3" y="310.02" width="40" height="40" rx="18.93" ry="18.93"/>
      <rect class="st0" x="1012.3" y="350.02" width="40" height="40" rx="18.93" ry="18.93"/>
      <rect class="st6" x="972.3" y="390.02" width="40" height="40" rx="18.93" ry="18.93"/>
      <rect class="st0" x="812.31" y="190.03" width="40" height="40" rx="18.93" ry="18.93"/>
      <path class="st6" d="M1052.3,150.03h0v-20s0,0,0,0c11.04,0,20-8.95,20-20h0s20,0,20,0h0c0,22.09-17.91,40-40,40Z"/>
      <path class="st0" d="M1052.3,130.03h0s0-20,0-20h20s0,0,0,0c0,11.04-8.95,20-20,20Z"/>
      <path class="st0" d="M932.3,350.02h0s0,20,0,20h0c-11.04,0-20,8.95-20,20h0s-20,0-20,0h0c0-22.09,17.91-40,40-40Z"/>
      <path class="st6" d="M932.3,370.02h0s0,20,0,20h-20s0,0,0,0c0-11.04,8.95-20,20-20Z"/>
      <path class="st6" d="M892.31,390.02h0s20,0,20,0h0c0,11.05,8.95,20,20,20h0v20h0c-22.09,0-40-17.91-40-40Z"/>
      <path class="st0" d="M912.31,390.02h0s20,0,20,0v20h0c-11.04,0-20-8.95-20-20Z"/>
      <path class="st4" d="M812.31,430.02h0s20,0,20,0h0c0,11.05,8.95,20,20,20h0v20h0c-22.09,0-40-17.91-40-40Z"/>
      <path class="st5" d="M832.31,430.02h0s20,0,20,0v20h0c-11.04,0-20-8.95-20-20Z"/>
      <path class="st7" d="M1092.3,310.02h0s-20,0-20,0h0c0-11.05-8.95-20-20-20h0v-20h0c22.09,0,40,17.91,40,40Z"/>
      <path class="st4" d="M1072.3,310.02h0s-20,0-20,0v-20h0c11.04,0,20,8.95,20,20Z"/>
      <rect class="st5" x="932.31" y="190.03" width="40" height="40"/>
      <rect class="st7" x="940.73" y="198.45" width="23.15" height="23.15" transform="translate(1162.33 -742.28) rotate(90)"/>
      <rect class="st0" x="932.31" y="430.02" width="40" height="40"/>
      <rect class="st4" x="940.73" y="438.44" width="23.15" height="23.15" transform="translate(1402.32 -502.29) rotate(90)"/>
      <rect class="st5" x="1052.3" y="190.03" width="40" height="40" rx="18.93" ry="18.93"/>
      <path class="st1" d="M1072.3,221.6c-6.38,0-11.57-5.19-11.57-11.57,0-6.38,5.19-11.57,11.57-11.57,6.38,0,11.57,5.19,11.57,11.57s-5.19,11.57-11.57,11.57Z"/>
      <rect class="st0" x="812.31" y="390.02" width="40" height="40" rx="18.93" ry="18.93"/>
      <path class="st5" d="M832.31,421.59c-6.38,0-11.57-5.19-11.57-11.57,0-6.38,5.19-11.57,11.57-11.57,6.38,0,11.57,5.19,11.57,11.57,0,6.38-5.19,11.57-11.57,11.57Z"/>
      <rect class="st0" x="1012.3" y="270.03" width="40" height="40" rx="18.93" ry="18.93"/>
      <path class="st6" d="M1032.3,301.6c-6.38,0-11.57-5.19-11.57-11.57,0-6.38,5.19-11.57,11.57-11.57,6.38,0,11.57,5.19,11.57,11.57,0,6.38-5.19,11.57-11.57,11.57Z"/>
      <path class="st4" d="M892.31,310.02v10h0c5.52,0,10,4.48,10,10h0c0,5.52-4.48,10-10,10h0v10s40-20,40-20l-40-20Z"/>
      <path class="st7" d="M892.31,350.02v-10h0c-5.52,0-10-4.48-10-10h0c0-5.52,4.48-10,10-10h0v-10s-40,20-40,20l40,20Z"/>
      <path class="st6" d="M972.3,190.03v-10h0c-5.52,0-10-4.48-10-10h0c0-5.52,4.48-10,10-10h0v-10s-40,20-40,20l40,20Z"/>
      <path class="st1" d="M972.3,150.03v10h0c5.52,0,10,4.48,10,10h0c0,5.52-4.48,10-10,10h0v10s40-20,40-20l-40-20Z"/>
      <path class="st7" d="M1050.61,175.24c-1.66,2.13-4.08,3.2-6.5,3.2-2.1,0-4.19-.8-5.79-2.4,3.2,3.2,3.2,8.39,0,11.59-1.6,1.6-3.69,2.4-5.79,2.4-2.1,0-4.2-.8-5.8-2.4-1.6-1.6-2.4-3.7-2.4-5.79,0-2.09.8-4.19,2.4-5.79-1.6,1.6-3.7,2.4-5.79,2.4-2.09,0-4.19-.8-5.79-2.4-1.6-1.6-2.4-3.7-2.4-5.8,0-2.09.8-4.19,2.4-5.79,1.6-1.6,3.7-2.4,5.79-2.4s4.19.8,5.79,2.4c-1.6-1.6-2.4-3.69-2.4-5.79,0-2.1.8-4.19,2.4-5.79s3.7-2.4,5.8-2.4,4.19.8,5.79,2.4c3.2,3.2,3.2,8.39,0,11.59,1.6-1.6,3.69-2.4,5.79-2.4,2.43,0,4.84,1.07,6.5,3.2,2.26,2.91,2.26,7.08,0,9.99Z"/>
      <path class="st4" d="M890.6,255.08c-1.68,2.16-4.12,3.24-6.57,3.24-2.12,0-4.24-.81-5.86-2.43,3.23,3.23,3.23,8.48,0,11.71-1.62,1.62-3.73,2.43-5.86,2.43s-4.25-.81-5.86-2.43c-1.62-1.62-2.43-3.74-2.43-5.86s.81-4.24,2.43-5.86c-1.62,1.62-3.74,2.43-5.86,2.43-2.12,0-4.24-.81-5.86-2.43-1.62-1.62-2.43-3.74-2.43-5.86,0-2.12.81-4.24,2.43-5.86,1.62-1.62,3.74-2.43,5.86-2.43s4.24.81,5.86,2.43c-1.62-1.62-2.43-3.73-2.43-5.86,0-2.12.81-4.24,2.43-5.86,1.62-1.62,3.74-2.43,5.86-2.43s4.24.81,5.86,2.43c3.23,3.23,3.23,8.48,0,11.71,1.62-1.62,3.73-2.43,5.86-2.43,2.45,0,4.9,1.08,6.57,3.24,2.28,2.94,2.28,7.16,0,10.1Z"/>
      <path class="st0" d="M970.59,335.07c-1.68,2.16-4.12,3.24-6.57,3.24-2.12,0-4.24-.81-5.86-2.43,3.23,3.23,3.23,8.48,0,11.71-1.62,1.62-3.73,2.43-5.86,2.43-2.12,0-4.25-.81-5.86-2.43s-2.43-3.74-2.43-5.86.81-4.24,2.43-5.86c-1.62,1.62-3.74,2.43-5.86,2.43-2.12,0-4.24-.81-5.86-2.43-1.62-1.62-2.43-3.74-2.43-5.86,0-2.12.81-4.24,2.43-5.86,1.62-1.62,3.74-2.43,5.86-2.43s4.24.81,5.86,2.43c-1.62-1.62-2.43-3.73-2.43-5.86,0-2.12.81-4.24,2.43-5.86,1.62-1.62,3.74-2.43,5.86-2.43s4.24.81,5.86,2.43c3.23,3.23,3.23,8.48,0,11.71,1.62-1.62,3.73-2.43,5.86-2.43,2.45,0,4.9,1.08,6.57,3.24,2.28,2.94,2.28,7.16,0,10.1Z"/>
      <path class="st7" d="M1090.59,415.07c-1.68,2.16-4.12,3.24-6.57,3.24-2.12,0-4.24-.81-5.86-2.43,3.23,3.23,3.23,8.48,0,11.71-1.62,1.62-3.73,2.43-5.86,2.43s-4.25-.81-5.86-2.43c-1.62-1.62-2.43-3.74-2.43-5.86s.81-4.24,2.43-5.86c-1.62,1.62-3.74,2.43-5.86,2.43s-4.24-.81-5.86-2.43c-1.62-1.62-2.43-3.74-2.43-5.86,0-2.12.81-4.24,2.43-5.86,1.62-1.62,3.74-2.43,5.86-2.43s4.24.81,5.86,2.43c-1.62-1.62-2.43-3.73-2.43-5.86,0-2.12.81-4.24,2.43-5.86,1.62-1.62,3.74-2.43,5.86-2.43s4.24.81,5.86,2.43c3.23,3.23,3.23,8.48,0,11.71,1.62-1.62,3.73-2.43,5.86-2.43,2.45,0,4.9,1.08,6.57,3.24,2.28,2.94,2.28,7.16,0,10.1Z"/>
      <circle class="st7" cx="947.31" cy="140.03" r="5"/>
      <path class="st0" d="M932.31,430.02v40s-2.14,0-2.14,0c-20.91,0-37.86-16.95-37.86-37.86v-2.14s40,0,40,0Z"/>
      <circle class="st7" cx="922.31" cy="455.01" r="5"/>
      <path class="st4" d="M1050.16,310.02h2.14v40h-40v-2.14c0-20.9,16.96-37.86,37.86-37.86Z"/>
      <circle class="st0" cx="1027.3" cy="340.02" r="5"/>
      <circle class="st0" cx="877.31" cy="205.03" r="5"/>
      <path class="st4" d="M930.17,190.03h2.14v40h-40v-2.14c0-20.9,16.96-37.86,37.86-37.86Z" transform="translate(1824.61 420.06) rotate(180)"/>
      <circle class="st0" cx="907.31" cy="205.03" r="5"/>
    </g>
    <g class="st3">
      <g>
        <polygon class="st5" points="612.27 110.03 612.27 70.04 592.27 90.03 572.27 110.03 612.27 110.03"/>
        <polygon class="st5" points="652.26 270.03 652.26 230.03 632.27 250.03 612.27 270.03 652.26 270.03"/>
        <polygon class="st4" points="812.26 270.03 812.26 230.03 792.26 250.03 772.26 270.03 812.26 270.03"/>
        <polygon class="st5" points="612.27 110.03 652.26 110.03 632.27 90.03 612.27 70.04 612.27 110.03"/>
        <polygon class="st5" points="652.26 150.03 692.26 150.03 672.26 130.03 652.26 110.03 652.26 150.03"/>
        <polygon class="st5" points="572.27 150.03 572.27 110.03 552.27 130.03 532.27 150.03 572.27 150.03"/>
        <polygon class="st4" points="772.26 70.04 772.26 30.04 752.26 50.04 732.26 70.04 772.26 70.04"/>
        <polygon class="st7" points="572.27 350.02 572.27 310.02 552.27 330.02 532.27 350.02 572.27 350.02"/>
        <polygon class="st5" points="692.26 70.04 732.26 70.04 712.26 50.04 692.26 30.04 692.26 70.04"/>
        <polygon class="st5" points="652.26 110.03 612.27 110.03 632.27 130.03 652.26 150.03 652.26 110.03"/>
        <polygon class="st5" points="692.26 230.03 652.26 230.03 672.26 250.03 692.26 270.03 692.26 230.03"/>
        <polygon class="st7" points="612.27 150.03 652.26 150.03 632.27 130.03 612.27 110.03 612.27 150.03"/>
        <polygon class="st7" points="612.27 150.03 612.27 110.03 592.27 130.03 572.27 150.03 612.27 150.03"/>
        <polygon class="st5" points="572.27 110.03 572.27 150.03 592.27 130.03 612.27 110.03 572.27 110.03"/>
        <path class="st5" d="M732.26,150.03h2.14c20.9,0,37.86,16.96,37.86,37.86v2.14h-2.14c-20.9,0-37.86-16.96-37.86-37.86v-2.14h0Z" transform="translate(1504.52 340.06) rotate(180)"/>
        <path class="st7" d="M732.26,270.03h2.14c20.9,0,37.86,16.96,37.86,37.86v2.14h-2.14c-20.9,0-37.86-16.96-37.86-37.86v-2.14h0Z" transform="translate(1042.28 -462.23) rotate(90)"/>
        <path class="st4" d="M532.27,230.03h2.14c20.9,0,37.86,16.96,37.86,37.86v2.14h-2.14c-20.9,0-37.86-16.96-37.86-37.86v-2.14h0Z"/>
        <rect class="st4" x="692.26" y="-9.96" width="40" height="40" transform="translate(1424.52 20.08) rotate(180)"/>
        <rect class="st0" x="732.26" y="310.02" width="40" height="40"/>
        <rect class="st5" x="772.26" y="30.04" width="40" height="40" transform="translate(1584.51 100.07) rotate(180)"/>
        <rect class="st6" x="772.26" y="110.03" width="40" height="40"/>
        <rect class="st4" x="612.27" y="150.03" width="40" height="40" transform="translate(1264.53 340.06) rotate(180)"/>
        <rect class="st5" x="732.26" y="230.03" width="40" height="40" transform="translate(1504.52 500.05) rotate(180)"/>
        <rect class="st0" x="692.26" y="110.03" width="40" height="40"/>
        <rect class="st0" x="572.27" y="270.03" width="40" height="40"/>
        <path class="st6" d="M612.27,350.02h2.14c20.91,0,37.86-16.95,37.86-37.86v-2.14h-40v40Z"/>
        <path class="st6" d="M610.13,350.02h2.14s0-40,0-40h-40v2.14c0,20.91,16.95,37.86,37.86,37.86Z"/>
        <path class="st1" d="M652.26,150.03v40h2.14c20.91,0,37.86-16.95,37.86-37.86v-2.14h-40Z"/>
        <path class="st0" d="M652.26,30.04h40v-2.14c0-20.91-16.95-37.86-37.86-37.86h-2.14V30.04Z"/>
        <path class="st0" d="M652.26,30.04V-9.96h-2.14c-20.91,0-37.86,16.95-37.86,37.86v2.14h40Z"/>
        <path class="st6" d="M772.26,30.04h40v-2.14c0-20.91-16.95-37.86-37.86-37.86h-2.14V30.04Z"/>
        <path class="st4" d="M772.26,150.03h40v40h-2.14c-20.9,0-37.86-16.96-37.86-37.86v-2.14h0Z" transform="translate(622.23 962.29) rotate(-90)"/>
        <path class="st6" d="M572.27,70.04V30.04h-2.14c-20.91,0-37.86,16.95-37.86,37.86v2.14h40Z"/>
        <path class="st5" d="M732.26,70.04h40v40h-2.14c-20.9,0-37.86-16.96-37.86-37.86v-2.14h0Z" transform="translate(662.22 842.29) rotate(-90)"/>
        <polygon class="st6" points="792.26 190.03 772.26 230.03 812.26 230.03 792.26 190.03 792.26 190.03"/>
        <polygon class="st7" points="712.26 190.03 732.26 150.03 692.26 150.03 712.26 190.03 712.26 190.03"/>
        <polygon class="st5" points="712.26 170.03 722.26 150.03 702.26 150.03 712.26 170.03 712.26 170.03"/>
        <polygon class="st4" points="672.26 310.02 692.26 270.03 652.26 270.03 672.26 310.02 672.26 310.02"/>
        <polygon class="st0" points="672.26 290.02 682.26 270.03 662.26 270.03 672.26 290.02 672.26 290.02"/>
        <polygon class="st7" points="732.26 10.04 772.26 30.04 772.26 -9.96 732.26 10.04 732.26 10.04"/>
        <polygon class="st5" points="752.26 10.04 772.26 20.04 772.26 .04 752.26 10.04 752.26 10.04"/>
        <polygon class="st7" points="532.27 210.03 572.27 230.03 572.27 190.03 532.27 210.03 532.27 210.03"/>
        <polygon class="st4" points="552.27 210.03 572.27 220.03 572.27 200.03 552.27 210.03 552.27 210.03"/>
        <rect class="st5" x="572.27" y="-9.96" width="40" height="40" rx="18.93" ry="18.93" transform="translate(1184.53 20.08) rotate(180)"/>
        <rect class="st6" x="612.27" y="190.03" width="40" height="40" rx="18.93" ry="18.93"/>
        <rect class="st0" x="572.27" y="230.03" width="40" height="40" rx="18.93" ry="18.93"/>
        <rect class="st6" x="612.27" y="270.03" width="40" height="40" rx="18.93" ry="18.93"/>
        <rect class="st0" x="772.26" y="70.04" width="40" height="40" rx="18.93" ry="18.93"/>
        <path class="st6" d="M572.27,30.04h0V10.04h0c-11.04,0-20-8.95-20-20h0s-20,0-20,0h0c0,22.09,17.91,40,40,40Z"/>
        <path class="st0" d="M572.27,10.04h0V-9.96h-20c0,11.04,8.95,20,20,20Z"/>
        <path class="st0" d="M692.27,230.03h0s0,20,0,20h0c11.04,0,20,8.95,20,20h0s20,0,20,0h0c0-22.09-17.91-40-40-40Z"/>
        <path class="st6" d="M692.27,250.03h0s0,20,0,20h20s0,0,0,0c0-11.04-8.95-20-20-20Z"/>
        <path class="st6" d="M732.26,270.03h0s-20,0-20,0h0c0,11.05-8.95,20-20,20h0v20h0c22.09,0,40-17.91,40-40Z"/>
        <path class="st0" d="M712.26,270.03h0s-20,0-20,0v20h0c11.04,0,20-8.95,20-20Z"/>
        <path class="st4" d="M812.26,310.03h0s-20,0-20,0h0c0,11.05-8.95,20-20,20h0v20h0c22.09,0,40-17.91,40-40Z"/>
        <path class="st5" d="M792.25,310.03h0s-20,0-20,0v20h0c11.04,0,20-8.95,20-20Z"/>
        <path class="st7" d="M532.27,190.03h0s20,0,20,0h0c0-11.05,8.95-20,20-20h0v-20h0c-22.09,0-40,17.91-40,40Z"/>
        <path class="st4" d="M552.27,190.03h0s20,0,20,0v-20h0c-11.04,0-20,8.95-20,20Z"/>
        <rect class="st5" x="652.26" y="70.04" width="40" height="40" transform="translate(1344.53 180.07) rotate(180)"/>
        <rect class="st7" x="660.69" y="78.46" width="23.15" height="23.15" transform="translate(762.3 -582.23) rotate(90)"/>
        <rect class="st0" x="652.26" y="310.02" width="40" height="40"/>
        <rect class="st4" x="660.69" y="318.45" width="23.15" height="23.15" transform="translate(1002.28 -342.24) rotate(90)"/>
        <rect class="st5" x="532.27" y="70.04" width="40" height="40" rx="18.93" ry="18.93" transform="translate(1104.54 180.07) rotate(180)"/>
        <path class="st1" d="M552.27,101.61c6.38,0,11.57-5.19,11.57-11.57,0-6.38-5.19-11.57-11.57-11.57-6.38,0-11.57,5.19-11.57,11.57,0,6.38,5.19,11.57,11.57,11.57Z"/>
        <rect class="st0" x="772.26" y="270.03" width="40" height="40" rx="18.93" ry="18.93"/>
        <path class="st5" d="M792.26,301.6c6.38,0,11.57-5.19,11.57-11.57,0-6.38-5.19-11.57-11.57-11.57-6.38,0-11.57,5.19-11.57,11.57,0,6.38,5.19,11.57,11.57,11.57Z"/>
        <rect class="st0" x="572.27" y="150.03" width="40" height="40" rx="18.93" ry="18.93"/>
        <path class="st6" d="M592.27,181.6c6.38,0,11.57-5.19,11.57-11.57,0-6.38-5.19-11.57-11.57-11.57-6.38,0-11.57,5.19-11.57,11.57s5.19,11.57,11.57,11.57Z"/>
        <path class="st4" d="M732.26,190.03v10h0c-5.52,0-10,4.48-10,10h0c0,5.52,4.48,10,10,10h0v10s-40-20-40-20l40-20Z"/>
        <path class="st7" d="M732.26,230.03v-10h0c5.52,0,10-4.48,10-10h0c0-5.52-4.48-10-10-10h0v-10s40,20,40,20l-40,20Z"/>
        <path class="st6" d="M652.26,70.04v-10h0c5.52,0,10-4.48,10-10h0c0-5.52-4.48-10-10-10h0v-10s40,20,40,20l-40,20Z"/>
        <path class="st1" d="M652.26,30.04v10h0c-5.52,0-10,4.48-10,10h0c0,5.52,4.48,10,10,10h0v10s-40-20-40-20l40-20Z"/>
        <path class="st7" d="M573.96,55.25c1.66,2.13,4.08,3.2,6.5,3.2,2.1,0,4.19-.8,5.79-2.4-3.2,3.2-3.2,8.39,0,11.59,1.6,1.6,3.69,2.4,5.79,2.4,2.1,0,4.2-.8,5.8-2.4,1.6-1.6,2.4-3.7,2.4-5.79,0-2.09-.8-4.19-2.4-5.79,1.6,1.6,3.7,2.4,5.79,2.4,2.09,0,4.19-.8,5.79-2.4,1.6-1.6,2.4-3.7,2.4-5.8,0-2.09-.8-4.19-2.4-5.79-1.6-1.6-3.7-2.4-5.79-2.4s-4.19.8-5.79,2.4c1.6-1.6,2.4-3.69,2.4-5.79s-.8-4.19-2.4-5.79c-1.6-1.6-3.7-2.4-5.8-2.4-2.1,0-4.19.8-5.79,2.4-3.2,3.2-3.2,8.39,0,11.59-1.6-1.6-3.69-2.4-5.79-2.4-2.43,0-4.84,1.07-6.5,3.2-2.26,2.91-2.26,7.08,0,9.99Z"/>
        <path class="st4" d="M733.97,135.08c1.68,2.16,4.12,3.24,6.57,3.24,2.12,0,4.24-.81,5.86-2.43-3.23,3.23-3.23,8.48,0,11.71,1.62,1.62,3.73,2.43,5.86,2.43s4.25-.81,5.86-2.43c1.62-1.62,2.43-3.74,2.43-5.86s-.81-4.24-2.43-5.86c1.62,1.62,3.74,2.43,5.86,2.43,2.12,0,4.24-.81,5.86-2.43,1.62-1.62,2.43-3.74,2.43-5.86,0-2.12-.81-4.24-2.43-5.86-1.62-1.62-3.74-2.43-5.86-2.43-2.12,0-4.24.81-5.86,2.43,1.62-1.62,2.43-3.73,2.43-5.86,0-2.12-.81-4.24-2.43-5.86-1.62-1.62-3.74-2.43-5.86-2.43-2.12,0-4.24.81-5.86,2.43-3.23,3.23-3.23,8.48,0,11.71-1.62-1.62-3.73-2.43-5.86-2.43-2.45,0-4.9,1.08-6.57,3.24-2.28,2.94-2.28,7.16,0,10.1Z"/>
        <path class="st0" d="M653.98,215.08c1.68,2.16,4.12,3.24,6.57,3.24,2.12,0,4.24-.81,5.86-2.43-3.23,3.23-3.23,8.48,0,11.71,1.62,1.62,3.73,2.43,5.86,2.43,2.12,0,4.25-.81,5.86-2.43,1.62-1.62,2.43-3.74,2.43-5.86,0-2.12-.81-4.24-2.43-5.86,1.62,1.62,3.74,2.43,5.86,2.43s4.24-.81,5.86-2.43c1.62-1.62,2.43-3.74,2.43-5.86,0-2.12-.81-4.24-2.43-5.86-1.62-1.62-3.74-2.43-5.86-2.43-2.12,0-4.24.81-5.86,2.43,1.62-1.62,2.43-3.73,2.43-5.86,0-2.12-.81-4.24-2.43-5.86-1.62-1.62-3.74-2.43-5.86-2.43-2.12,0-4.24.81-5.86,2.43-3.23,3.23-3.23,8.48,0,11.71-1.62-1.62-3.73-2.43-5.86-2.43-2.45,0-4.9,1.08-6.57,3.24-2.28,2.94-2.28,7.16,0,10.1Z"/>
        <path class="st7" d="M533.98,295.07c1.68,2.16,4.12,3.24,6.57,3.24,2.12,0,4.24-.81,5.86-2.43-3.23,3.23-3.23,8.48,0,11.71,1.62,1.62,3.73,2.43,5.86,2.43,2.12,0,4.25-.81,5.86-2.43,1.62-1.62,2.43-3.74,2.43-5.86,0-2.12-.81-4.24-2.43-5.86,1.62,1.62,3.74,2.43,5.86,2.43,2.12,0,4.24-.81,5.86-2.43,1.62-1.62,2.43-3.74,2.43-5.86,0-2.12-.81-4.24-2.43-5.86-1.62-1.62-3.74-2.43-5.86-2.43-2.12,0-4.24.81-5.86,2.43,1.62-1.62,2.43-3.73,2.43-5.86,0-2.12-.81-4.24-2.43-5.86-1.62-1.62-3.74-2.43-5.86-2.43-2.12,0-4.24.81-5.86,2.43-3.23,3.23-3.23,8.48,0,11.71-1.62-1.62-3.73-2.43-5.86-2.43-2.45,0-4.9,1.08-6.57,3.24-2.28,2.94-2.28,7.16,0,10.1Z"/>
        <circle class="st7" cx="677.26" cy="20.04" r="5"/>
        <path class="st0" d="M692.26,310.02v40h2.14c20.91,0,37.86-16.95,37.86-37.86v-2.14h-40Z"/>
        <circle class="st7" cx="702.26" cy="335.02" r="5"/>
        <path class="st4" d="M572.27,190.03h40v40h-2.14c-20.9,0-37.86-16.96-37.86-37.86v-2.14h0Z" transform="translate(1184.53 420.06) rotate(180)"/>
        <circle class="st0" cx="597.27" cy="220.03" r="5"/>
        <circle class="st0" cx="747.26" cy="85.04" r="5"/>
        <path class="st4" d="M692.26,70.04h40v40h-2.14c-20.9,0-37.86-16.96-37.86-37.86v-2.14h0Z"/>
        <circle class="st0" cx="717.26" cy="85.04" r="5"/>
      </g>
    </g>
  </g>
</svg>