<?xml version="1.0" encoding="UTF-8"?>
<svg id="Camada_1" xmlns="http://www.w3.org/2000/svg" version="1.1" viewBox="0 0 500 500">
  <!-- Generator: Adobe Illustrator 29.0.1, SVG Export Plug-In . SVG Version: 2.1.0 Build 192)  -->
  <defs>
    <style>
      .st0 {
        fill: #ff654d;
      }
    </style>
  </defs>
  <path class="st0" d="M168,210.14c8.81-5.33,17.73-5.91,26.33.17,11.92,8.43,39.11,37.42,49.7,49.3,1.23,1.38,4.95,7.39,5.49,7.52,1.64.41,5.01-5.89,6.47-7.52,10.61-11.9,37.76-40.86,49.7-49.3,8.6-6.08,17.51-5.5,26.33-.17v-57.5c0-.53,1.7-4.82,2.13-5.87,9.13-22.08,41.68-16.85,43.91,8.84,1.92,22.2,1.54,60.61,0,83.08-2.3,33.67-31.53,53.84-49.84,79.16.02,2.16-.76,14.77-.2,15.29.74.69,7.23-1.6,9.33,5.17,1.33,4.27,1.3,28.18.43,33.1-.8,4.51-3.52,6.88-8.21,6.79l-162.6-.5c-3.62-1.3-4.55-4.49-4.95-8.05-.58-5.14-.62-29.23,1.21-32.78,2.53-4.91,8.29-3.25,8.78-3.72.53-.5-.34-12.39-.02-14.47-17.87-26.23-47.68-45.79-50.02-79.98-1.54-22.46-1.91-60.88,0-83.08,1.62-18.78,21.34-29.95,36.95-17.88,3.46,2.68,9.09,10.66,9.09,14.91v57.5ZM242,333.14v-43.5c0-3.71-5.48-14.71-8.02-17.98l-49.62-49.4c-5.92-3.08-11.93,2.61-9.92,8.92,2.17,6.82,27.62,25.74,32.44,33.58,4.42,7.86-3.33,15.64-10.83,10.82-15.11-17.97-41.91-32.59-44.03-57.97-1.72-20.52,1.27-43.2-.04-63.96-2.81-7.61-12.41-7.01-14.03.92,1.93,28.15-2.39,59.3.01,87.09.62,7.11,3.37,13.91,7.22,19.78,5.23,7.96,42.81,49.42,42.81,53.19v18.5h54ZM312,333.14v-18.5c0-8.51,47.87-47.94,50.04-72.96,2.41-27.78-1.91-58.94.01-87.09-1.62-7.93-11.22-8.53-14.03-.92-1.31,20.76,1.68,43.44-.04,63.96-2.12,25.37-28.92,40-44.03,57.97-7.5,4.81-15.25-2.97-10.83-10.82,4.82-7.84,30.27-26.76,32.44-33.58,2.01-6.31-4-12-9.92-8.92l-49.62,49.4c-2.55,3.27-8.02,14.26-8.02,17.98v43.5h54ZM242,348.14h-64v15h64v-15ZM322,348.14h-64v15h64v-15Z"/>
  <path class="st0" d="M218.76,122.4c12.06-1.76,22.62,1.82,30.87,10.67,3.58-2.02,5.89-5.07,9.68-7.11,30.34-16.28,61.8,18.63,42.31,47.31-5.86,8.62-36.45,39.13-45.11,45.9-4.9,3.83-7.29,4.41-12.54.5-9.02-6.71-36.12-34.36-43.49-43.51-15.55-19.31-6.61-50.12,18.27-53.75ZM222.78,137.38c-11.27,1.22-18.27,14.41-13.29,24.77,12.33,14.45,26.73,27.37,40.15,40.92,1.21.23,1.64-.82,2.39-1.39,6.8-5.22,31.52-29.78,36.5-36.51,11.64-15.74-6.84-36.39-24.02-24.02-4.52,3.26-8.58,11.29-14.97,11.08-8.32-.27-12.3-16.4-26.75-14.84Z"/>
</svg>