<?xml version="1.0" encoding="UTF-8"?>
<svg id="Camada_1" xmlns="http://www.w3.org/2000/svg" version="1.1" viewBox="0 0 2287.65 500">
  <!-- Generator: Adobe Illustrator 29.0.1, SVG Export Plug-In . SVG Version: 2.1.0 Build 192)  -->
  <defs>
    <style>
      .st0 {
        fill: #bab5ae;
      }
    </style>
  </defs>
  <path class="st0" d="M2279.63,165.58c.47-1.11.73-2.32.73-3.6,0-1.91-.58-3.67-1.57-5.14.19.02.38.03.57.03.77,0,1.49-.16,2.16-.44,0,0,.09-.04.25-.12.09-.04.18-.09.27-.13.9-.45,2.94-1.53,5.62-3.23v-13.22c-3.15,2.31-6.55,4.51-10.37,6.45-2.03.82-3.47,2.81-3.47,5.14,0,.66.12,1.3.34,1.89-17.57-9.03-30.68-20.88-40.43-33.1-.35-1.68-1.33-3.18-2.2-4.66,8.37,6.93,15.7,10.83,17.84,11.91.11.06.22.11.34.17.2.1.3.15.3.15.82.35,1.72.54,2.66.54,3.77,0,6.83-3.06,6.83-6.83,0-2.87-1.77-5.32-4.27-6.33-44.47-22.63-50.69-69.56-50.69-69.56-.58-2.23-1.27-4.07-5.14-4.11h0s-.04,0-.06,0c-.02,0-.04,0-.06,0h0c-3.87.04-4.57,1.88-5.14,4.11,0,0-6.22,46.94-50.69,69.56-2.5,1.01-4.27,3.46-4.27,6.33,0,3.77,3.06,6.83,6.83,6.83.94,0,1.84-.19,2.66-.54,0,0,.11-.05.3-.15.11-.05.23-.11.34-.17,2.15-1.08,9.48-4.98,17.84-11.91-.87,1.49-1.85,2.98-2.2,4.66-9.83,12.33-23.08,24.28-40.88,33.34-3.37,1.36-5.76,4.66-5.76,8.53,0,5.08,4.12,9.2,9.2,9.2,1.27,0,2.48-.26,3.58-.72,0,0,.14-.07.41-.2.15-.07.3-.14.45-.22,2.89-1.45,12.77-6.71,24.03-16.04-1.31,2.24-2.81,4.49-3.1,7.1-8.09,9.75-17.89,19.25-29.72,27.76.99-1.27,1.58-2.86,1.58-4.59,0-3.13-1.93-5.81-4.67-6.92-14.45-7.35-25.19-17.05-33.17-27.05-.29-1.36-1.08-2.58-1.79-3.78,6.79,5.62,12.74,8.79,14.48,9.66.09.05.18.09.27.13.16.08.25.12.25.12.66.28,1.39.44,2.16.44,3.06,0,5.54-2.48,5.54-5.54,0-2.33-1.44-4.31-3.47-5.14-36.08-18.36-41.13-56.44-41.13-56.44-.47-1.81-1.03-3.3-4.17-3.33h0s-.03,0-.05,0-.03,0-.05,0h0c-3.14.03-3.7,1.53-4.17,3.34,0,0-5.05,38.08-41.13,56.44-2.03.82-3.47,2.81-3.47,5.14,0,.66.12,1.3.34,1.89-17.57-9.03-30.68-20.88-40.43-33.1-.35-1.68-1.33-3.18-2.2-4.66,8.37,6.93,15.7,10.83,17.84,11.91.11.06.22.11.34.17.2.1.3.15.3.15.82.35,1.72.54,2.66.54,3.77,0,6.83-3.06,6.83-6.83,0-2.87-1.77-5.32-4.27-6.33-44.47-22.63-50.69-69.56-50.69-69.56-.58-2.23-1.27-4.07-5.14-4.11h0s-.04,0-.06,0c-.02,0-.04,0-.06,0h0c-3.87.04-4.57,1.88-5.14,4.11,0,0-6.22,46.94-50.69,69.56-2.5,1.01-4.27,3.46-4.27,6.33,0,3.77,3.06,6.83,6.83,6.83.94,0,1.84-.19,2.66-.54,0,0,.11-.05.3-.15.11-.05.23-.11.34-.17,2.15-1.08,9.48-4.98,17.84-11.91-.87,1.49-1.85,2.98-2.2,4.66-9.83,12.33-23.08,24.28-40.88,33.34-3.37,1.36-5.76,4.66-5.76,8.53,0,5.08,4.12,9.2,9.2,9.2,1.27,0,2.48-.26,3.58-.72,0,0,.14-.07.41-.2.15-.07.3-.14.45-.22,2.89-1.45,12.77-6.71,24.03-16.04-1.31,2.24-2.81,4.49-3.1,7.1-8.09,9.75-17.89,19.25-29.72,27.76.99-1.27,1.58-2.86,1.58-4.59,0-3.13-1.93-5.81-4.67-6.92-14.45-7.35-25.19-17.05-33.17-27.05-.29-1.36-1.08-2.58-1.79-3.78,6.79,5.62,12.74,8.79,14.48,9.66.09.05.18.09.27.13.16.08.25.12.25.12.66.28,1.39.44,2.16.44,3.06,0,5.54-2.48,5.54-5.54,0-2.33-1.44-4.31-3.47-5.14-36.08-18.36-41.13-56.44-41.13-56.44-.47-1.81-1.03-3.3-4.17-3.33h0s-.03,0-.05,0-.03,0-.05,0h0c-3.14.03-3.7,1.53-4.17,3.34,0,0-5.05,38.08-41.13,56.44-2.03.82-3.47,2.81-3.47,5.14,0,.66.12,1.3.34,1.89-17.57-9.03-30.68-20.88-40.43-33.1-.35-1.68-1.33-3.18-2.2-4.66,8.37,6.93,15.7,10.83,17.84,11.91.11.06.22.11.33.17.2.1.3.15.3.15.82.35,1.72.54,2.66.54,3.77,0,6.83-3.06,6.83-6.83,0-2.87-1.77-5.32-4.27-6.33-44.47-22.63-50.69-69.56-50.69-69.56-.58-2.23-1.27-4.07-5.14-4.11h0s-.04,0-.06,0c-.02,0-.04,0-.06,0h0c-3.87.04-4.57,1.88-5.14,4.11,0,0-6.22,46.94-50.69,69.56-2.5,1.01-4.27,3.46-4.27,6.33,0,3.77,3.06,6.83,6.83,6.83.94,0,1.84-.19,2.66-.54,0,0,.11-.05.3-.15.11-.05.23-.11.33-.17,2.15-1.08,9.48-4.98,17.84-11.91-.87,1.49-1.85,2.98-2.2,4.66-9.6,12.03-22.47,23.68-39.64,32.66.13-.46.21-.94.21-1.45,0-2.33-1.44-4.31-3.47-5.14-36.08-18.36-41.13-56.44-41.13-56.44-.47-1.81-1.03-3.3-4.17-3.33h0s-.03,0-.05,0-.03,0-.05,0h0c-3.14.03-3.7,1.53-4.17,3.34,0,0-5.05,38.08-41.13,56.44-2.03.82-3.47,2.81-3.47,5.14,0,.66.12,1.3.34,1.89-17.57-9.03-30.68-20.88-40.43-33.1-.35-1.68-1.33-3.18-2.2-4.66,8.37,6.93,15.7,10.83,17.84,11.91.11.06.22.11.33.17.2.1.3.15.3.15.82.35,1.72.54,2.66.54,3.77,0,6.83-3.06,6.83-6.83,0-2.87-1.77-5.32-4.27-6.33-44.47-22.63-50.69-69.56-50.69-69.56-.58-2.23-1.27-4.07-5.15-4.11h0s-.04,0-.06,0c-.02,0-.04,0-.06,0h0c-3.87.04-4.57,1.88-5.14,4.11,0,0-6.22,46.94-50.69,69.56-2.5,1.01-4.27,3.46-4.27,6.33,0,3.77,3.06,6.83,6.83,6.83.94,0,1.84-.19,2.66-.54,0,0,.11-.05.3-.15.11-.05.23-.11.33-.17,2.15-1.08,9.48-4.98,17.84-11.91-.87,1.49-1.85,2.98-2.2,4.66-9.83,12.33-23.08,24.28-40.88,33.34-3.37,1.36-5.76,4.66-5.76,8.53,0,5.08,4.12,9.2,9.2,9.2,1.27,0,2.48-.26,3.58-.72,0,0,.14-.07.41-.2.15-.07.3-.14.45-.22,2.89-1.45,12.77-6.71,24.03-16.04-1.31,2.24-2.81,4.49-3.1,7.1-8.09,9.75-17.89,19.25-29.72,27.76.99-1.27,1.58-2.86,1.58-4.59,0-3.13-1.93-5.81-4.67-6.92-14.45-7.35-25.19-17.05-33.17-27.05-.29-1.36-1.08-2.58-1.79-3.78,6.79,5.62,12.74,8.79,14.48,9.66.09.05.18.09.27.13.16.08.25.12.25.12.66.28,1.39.44,2.16.44,3.06,0,5.54-2.48,5.54-5.54,0-2.33-1.44-4.31-3.47-5.14-36.08-18.36-41.13-56.44-41.13-56.44-.47-1.81-1.03-3.3-4.17-3.33h0s-.03,0-.05,0-.03,0-.05,0h0c-3.14.03-3.7,1.53-4.17,3.34,0,0-5.05,38.08-41.13,56.44-2.03.82-3.47,2.81-3.47,5.14,0,.66.12,1.3.34,1.89-17.57-9.03-30.68-20.88-40.43-33.1-.35-1.68-1.33-3.18-2.2-4.66,8.37,6.93,15.7,10.83,17.84,11.91.11.06.22.11.34.17.2.1.3.15.3.15.82.35,1.72.54,2.66.54,3.77,0,6.83-3.06,6.83-6.83,0-2.87-1.77-5.32-4.27-6.33-44.47-22.63-50.69-69.56-50.69-69.56-.58-2.23-1.27-4.07-5.14-4.11h0s-.04,0-.06,0c-.02,0-.04,0-.06,0h0c-3.87.04-4.57,1.88-5.14,4.11,0,0-6.22,46.94-50.69,69.56-2.5,1.01-4.27,3.46-4.27,6.33,0,3.77,3.06,6.83,6.83,6.83.94,0,1.84-.19,2.66-.54,0,0,.11-.05.3-.15.11-.05.23-.11.34-.17,2.15-1.08,9.48-4.98,17.84-11.91-.87,1.49-1.85,2.98-2.2,4.66-9.83,12.33-23.08,24.28-40.88,33.34-3.37,1.36-5.76,4.66-5.76,8.53,0,5.08,4.12,9.2,9.2,9.2,1.27,0,2.48-.26,3.58-.72,0,0,.14-.07.41-.2.15-.07.3-.14.45-.22,2.89-1.45,12.77-6.71,24.03-16.04-1.31,2.24-2.81,4.49-3.1,7.1-8.09,9.75-17.89,19.25-29.72,27.76.99-1.27,1.58-2.86,1.58-4.59,0-3.13-1.93-5.81-4.67-6.92-14.45-7.35-25.19-17.05-33.17-27.05-.29-1.36-1.08-2.58-1.79-3.78,6.79,5.62,12.74,8.79,14.48,9.66.09.05.18.09.27.13.16.08.25.12.25.12.66.28,1.39.44,2.16.44,3.06,0,5.54-2.48,5.54-5.54,0-2.33-1.44-4.31-3.47-5.14-36.08-18.36-41.13-56.44-41.13-56.44-.47-1.81-1.03-3.3-4.17-3.33h0s-.03,0-.05,0-.03,0-.05,0h0c-3.14.03-3.7,1.53-4.17,3.34,0,0-5.05,38.08-41.13,56.44-2.03.82-3.47,2.81-3.47,5.14,0,.66.12,1.3.34,1.89-17.57-9.03-30.68-20.88-40.43-33.1-.35-1.68-1.33-3.18-2.2-4.66,8.37,6.93,15.7,10.83,17.84,11.91.11.06.22.11.34.17.2.1.3.15.3.15.82.35,1.72.54,2.66.54,3.77,0,6.83-3.06,6.83-6.83,0-2.87-1.77-5.32-4.27-6.33-44.47-22.63-50.69-69.56-50.69-69.56-.58-2.23-1.27-4.07-5.14-4.11h0s-.04,0-.06,0c-.02,0-.04,0-.06,0h0c-3.87.04-4.57,1.88-5.15,4.11,0,0-6.22,46.94-50.69,69.56-2.5,1.01-4.27,3.46-4.27,6.33,0,3.77,3.06,6.83,6.83,6.83.94,0,1.84-.19,2.66-.54,0,0,.11-.05.3-.15.11-.05.23-.11.33-.17,2.15-1.08,9.48-4.98,17.84-11.91-.87,1.49-1.85,2.98-2.2,4.66-9.83,12.33-23.08,24.28-40.88,33.34-3.37,1.36-5.76,4.66-5.76,8.53,0,5.08,4.12,9.2,9.2,9.2,1.27,0,2.48-.26,3.58-.72,0,0,.14-.07.41-.2.15-.07.3-.14.45-.22,2.89-1.45,12.77-6.71,24.03-16.04-1.31,2.24-2.81,4.49-3.1,7.1-8.09,9.75-17.89,19.25-29.72,27.76.99-1.27,1.58-2.86,1.58-4.59,0-3.13-1.93-5.81-4.67-6.92-14.45-7.35-25.19-17.05-33.17-27.05-.29-1.36-1.08-2.58-1.79-3.78,6.79,5.62,12.74,8.79,14.48,9.66.09.05.18.09.27.13.16.08.25.12.25.12.66.28,1.39.44,2.16.44,3.06,0,5.54-2.48,5.54-5.54,0-2.33-1.44-4.31-3.47-5.14-36.08-18.36-41.13-56.44-41.13-56.44-.47-1.81-1.03-3.3-4.17-3.33h0s-.03,0-.05,0-.03,0-.05,0h0c-3.14.03-3.7,1.53-4.17,3.34,0,0-5.05,38.08-41.13,56.44-2.03.82-3.47,2.81-3.47,5.14,0,.66.12,1.3.34,1.89-17.57-9.03-30.68-20.88-40.43-33.1-.35-1.68-1.33-3.18-2.2-4.66,8.37,6.93,15.7,10.83,17.84,11.91.11.06.22.11.33.17.2.1.3.15.3.15.82.35,1.72.54,2.66.54,3.77,0,6.83-3.06,6.83-6.83,0-2.87-1.77-5.32-4.27-6.33-44.47-22.63-50.69-69.56-50.69-69.56-.58-2.23-1.27-4.07-5.14-4.11h0s-.04,0-.06,0c-.02,0-.04,0-.06,0h0c-3.87.04-4.57,1.88-5.14,4.11,0,0-6.22,46.94-50.69,69.56-2.5,1.01-4.27,3.46-4.27,6.33,0,3.77,3.06,6.83,6.83,6.83.94,0,1.84-.19,2.66-.54,0,0,.11-.05.3-.15.11-.05.23-.11.34-.17,2.15-1.08,9.48-4.98,17.84-11.91-.87,1.49-1.85,2.98-2.2,4.66-9.83,12.33-23.08,24.28-40.88,33.34-3.37,1.36-5.76,4.66-5.76,8.53,0,5.08,4.12,9.2,9.2,9.2,1.27,0,2.48-.26,3.58-.72,0,0,.14-.07.41-.2.15-.07.3-.14.45-.22,2.89-1.45,12.77-6.71,24.03-16.04-1.31,2.24-2.81,4.49-3.1,7.1-8.09,9.75-17.89,19.25-29.72,27.76.99-1.27,1.58-2.86,1.58-4.59,0-3.13-1.93-5.81-4.67-6.92-14.45-7.35-25.19-17.05-33.17-27.05-.29-1.36-1.08-2.58-1.79-3.78,6.79,5.62,12.74,8.79,14.48,9.66.09.05.18.09.27.13.16.08.25.12.25.12.66.28,1.39.44,2.16.44,3.06,0,5.54-2.48,5.54-5.54,0-2.33-1.44-4.31-3.47-5.14-36.08-18.36-41.13-56.44-41.13-56.44-.47-1.81-1.03-3.3-4.17-3.33h0s-.03,0-.05,0-.03,0-.05,0h0c-3.14.03-3.7,1.53-4.17,3.34,0,0-5.05,38.08-41.13,56.44-2.03.82-3.47,2.81-3.47,5.14,0,.66.12,1.3.34,1.89-17.57-9.03-30.68-20.88-40.43-33.1-.35-1.68-1.33-3.18-2.2-4.66,8.37,6.93,15.7,10.83,17.84,11.91.11.06.22.11.34.17.2.1.3.15.3.15.82.35,1.72.54,2.66.54,3.77,0,6.83-3.06,6.83-6.83,0-2.87-1.77-5.32-4.27-6.33-44.47-22.63-50.69-69.56-50.69-69.56-.58-2.23-1.27-4.07-5.14-4.11h0s-.04,0-.06,0c-.02,0-.04,0-.06,0h0c-3.87.04-4.57,1.88-5.14,4.11,0,0-6.22,46.94-50.69,69.56-2.5,1.01-4.27,3.46-4.27,6.33,0,3.77,3.06,6.83,6.83,6.83.94,0,1.84-.19,2.66-.54,0,0,.11-.05.3-.15.11-.05.23-.11.34-.17,2.15-1.08,9.48-4.98,17.84-11.91-.87,1.49-1.85,2.98-2.2,4.66-9.83,12.33-23.08,24.28-40.88,33.34-3.37,1.36-5.76,4.66-5.76,8.53,0,5.08,4.12,9.2,9.2,9.2,1.27,0,2.48-.26,3.58-.72,0,0,.14-.07.41-.2.15-.07.3-.14.45-.22,2.89-1.45,12.77-6.71,24.03-16.04-1.31,2.24-2.81,4.49-3.1,7.1-8.09,9.75-17.89,19.25-29.72,27.76.99-1.27,1.58-2.86,1.58-4.59,0-3.13-1.93-5.81-4.67-6.92-14.45-7.35-25.19-17.05-33.17-27.05-.29-1.36-1.08-2.58-1.79-3.78,6.79,5.62,12.74,8.79,14.48,9.66.09.05.18.09.27.13.16.08.25.12.25.12.66.28,1.39.44,2.16.44,3.06,0,5.54-2.48,5.54-5.54,0-2.33-1.44-4.31-3.47-5.14-36.08-18.36-41.13-56.44-41.13-56.44-.47-1.81-1.03-3.3-4.17-3.33h0s-.03,0-.05,0-.03,0-.05,0h0c-3.14.03-3.7,1.53-4.17,3.34,0,0-5.05,38.08-41.13,56.44-2.03.82-3.47,2.81-3.47,5.14,0,.66.12,1.3.34,1.89-17.57-9.03-30.68-20.88-40.43-33.1-.35-1.68-1.33-3.18-2.2-4.66,8.37,6.93,15.7,10.83,17.84,11.91.11.06.22.11.33.17.2.1.3.15.3.15.82.35,1.72.54,2.66.54,3.77,0,6.83-3.06,6.83-6.83,0-2.87-1.77-5.32-4.27-6.33-44.47-22.63-50.69-69.56-50.69-69.56-.58-2.23-1.27-4.07-5.14-4.11h0s-.04,0-.06,0c-.02,0-.04,0-.06,0h0c-3.87.04-4.57,1.88-5.14,4.11,0,0-6.22,46.94-50.69,69.56-2.5,1.01-4.27,3.46-4.27,6.33,0,3.77,3.06,6.83,6.83,6.83.94,0,1.84-.19,2.66-.54,0,0,.11-.05.3-.15.11-.05.23-.11.33-.17,2.15-1.08,9.48-4.98,17.84-11.91-.87,1.49-1.85,2.98-2.2,4.66-9.83,12.33-23.08,24.28-40.88,33.34-3.37,1.36-5.76,4.66-5.76,8.53,0,5.08,4.12,9.2,9.2,9.2,1.27,0,2.48-.26,3.58-.72,0,0,.14-.07.41-.2.15-.07.3-.14.45-.22,2.89-1.45,12.77-6.71,24.03-16.04-1.31,2.24-2.81,4.49-3.1,7.1-12.49,15.06-29.03,29.53-50.86,40.63-4.36,1.76-7.44,6.03-7.44,11.02,0,6.57,5.32,11.89,11.89,11.89,1.64,0,3.21-.33,4.63-.93,0,0,.19-.09.53-.25.2-.09.39-.18.58-.29,1.61-.81,4.9-2.53,9.28-5.19v288.66h2257.87V158.27c-2.47,2.51-5.13,4.96-8.02,7.31ZM169.86,177.36c-.06.02-.11.06-.16.08-5.79-5.27-10.98-10.76-15.6-16.33-.29-2.61-1.79-4.86-3.1-7.1,11.27,9.33,21.14,14.59,24.03,16.04.15.08.3.15.45.22.26.13.41.2.41.2,1.1.47,2.31.72,3.58.72.34,0,.67-.02,1-.06-3.3,2.21-6.82,4.3-10.61,6.23ZM193.24,183.56c-2.05,2.47-4.23,4.91-6.56,7.32-1.58-1.09-3.13-2.19-4.64-3.31,3.64-2.21,8.49-5.45,13.71-9.78-1.07,1.82-2.28,3.65-2.52,5.76ZM203.04,150.3c-4.21,5.28-9.2,10.47-15.09,15.28.47-1.11.73-2.32.73-3.6,0-1.91-.58-3.67-1.57-5.14.19.02.38.03.57.03.77,0,1.49-.16,2.16-.44,0,0,.09-.04.25-.12.09-.04.18-.09.27-.13,1.74-.87,7.69-4.04,14.48-9.66-.71,1.21-1.5,2.42-1.79,3.78ZM288.28,193.52h-10.45c-3.32-3.25-6.38-6.58-9.18-9.96-.23-2.12-1.45-3.94-2.52-5.76,9.14,7.57,17.16,11.84,19.5,13.01.12.07.24.12.37.18.21.1.33.16.33.16.89.38,1.87.59,2.91.59.79,0,1.55-.12,2.26-.35-1.06.72-2.13,1.43-3.22,2.13ZM433.54,177.36c-.06.02-.11.06-.16.08-5.79-5.27-10.98-10.76-15.6-16.33-.29-2.61-1.79-4.86-3.1-7.1,11.27,9.33,21.14,14.59,24.03,16.04.15.08.3.15.45.22.26.13.41.2.41.2,1.1.47,2.31.72,3.58.72.34,0,.67-.02,1-.06-3.3,2.21-6.82,4.3-10.61,6.23ZM456.92,183.56c-2.05,2.47-4.23,4.91-6.56,7.32-1.58-1.09-3.13-2.19-4.64-3.31,3.64-2.21,8.49-5.45,13.71-9.78-1.07,1.82-2.28,3.65-2.52,5.76ZM466.71,150.3c-4.21,5.28-9.2,10.47-15.09,15.28.47-1.11.73-2.32.73-3.6,0-1.91-.58-3.67-1.57-5.14.19.02.38.03.57.03.77,0,1.49-.16,2.16-.44,0,0,.09-.04.25-.12.09-.04.18-.09.27-.13,1.74-.87,7.69-4.04,14.48-9.66-.71,1.21-1.5,2.42-1.79,3.78ZM551.96,193.52h-10.45c-3.32-3.25-6.38-6.58-9.18-9.96-.23-2.12-1.45-3.94-2.52-5.76,9.14,7.57,17.16,11.84,19.5,13.01.12.07.24.12.37.18.21.1.33.16.33.16.89.38,1.87.59,2.91.59.79,0,1.55-.12,2.26-.35-1.06.72-2.13,1.43-3.22,2.13ZM697.21,177.36c-.06.02-.11.06-.16.08-5.79-5.27-10.98-10.76-15.6-16.33-.29-2.61-1.79-4.86-3.1-7.1,11.27,9.33,21.14,14.59,24.03,16.04.15.08.3.15.45.22.26.13.41.2.41.2,1.1.47,2.31.72,3.58.72.34,0,.67-.02,1-.06-3.3,2.21-6.82,4.3-10.61,6.23ZM720.59,183.56c-2.05,2.47-4.23,4.91-6.56,7.32-1.58-1.09-3.13-2.19-4.64-3.31,3.64-2.21,8.49-5.45,13.71-9.78-1.07,1.82-2.28,3.65-2.52,5.76ZM730.39,150.3c-4.21,5.28-9.2,10.47-15.09,15.28.47-1.11.73-2.32.73-3.6,0-1.91-.58-3.67-1.57-5.14.19.02.38.03.57.03.77,0,1.49-.16,2.16-.44,0,0,.09-.04.25-.12.09-.04.18-.09.27-.13,1.74-.87,7.69-4.04,14.48-9.66-.71,1.21-1.5,2.42-1.79,3.78ZM815.63,193.52h-10.45c-3.32-3.25-6.38-6.58-9.18-9.96-.23-2.12-1.45-3.94-2.52-5.76,9.14,7.57,17.16,11.84,19.5,13.01.12.07.24.12.37.18.21.1.33.16.33.16.89.38,1.87.59,2.91.59.79,0,1.55-.12,2.26-.35-1.06.72-2.13,1.43-3.22,2.13ZM960.89,177.36c-.06.02-.11.06-.16.08-5.79-5.27-10.98-10.76-15.6-16.33-.29-2.61-1.79-4.86-3.1-7.1,11.27,9.33,21.14,14.59,24.03,16.04.15.08.3.15.45.22.26.13.41.2.41.2,1.1.47,2.31.72,3.58.72.34,0,.67-.02,1-.06-3.3,2.21-6.82,4.3-10.61,6.23ZM984.27,183.56c-2.05,2.47-4.23,4.91-6.56,7.32-1.58-1.09-3.13-2.19-4.64-3.31,3.64-2.21,8.49-5.45,13.71-9.78-1.07,1.82-2.28,3.65-2.52,5.76ZM994.06,150.3c-4.21,5.28-9.2,10.47-15.09,15.28.47-1.11.73-2.32.73-3.6,0-1.91-.58-3.67-1.57-5.14.19.02.38.03.57.03.77,0,1.49-.16,2.16-.44,0,0,.09-.04.25-.12.09-.04.18-.09.27-.13,1.74-.87,7.69-4.04,14.48-9.66-.71,1.21-1.5,2.42-1.79,3.78ZM1079.31,193.52h-10.45c-3.32-3.25-6.38-6.58-9.18-9.96-.23-2.12-1.45-3.94-2.52-5.76,9.14,7.57,17.16,11.84,19.5,13.01.12.07.24.12.37.18.21.1.33.16.33.16.89.38,1.87.59,2.91.59.79,0,1.55-.12,2.26-.35-1.06.72-2.13,1.43-3.22,2.13ZM1224.56,177.36c-.06.02-.11.06-.16.08-5.79-5.27-10.98-10.76-15.6-16.33-.29-2.61-1.79-4.86-3.1-7.1,11.27,9.33,21.14,14.59,24.03,16.04.15.08.3.15.45.22.26.13.41.2.41.2,1.1.47,2.31.72,3.58.72.34,0,.67-.02,1-.06-3.3,2.21-6.82,4.3-10.61,6.23ZM1247.94,183.56c-2.05,2.47-4.23,4.91-6.56,7.32-1.58-1.09-3.13-2.19-4.64-3.31,3.64-2.21,8.49-5.45,13.71-9.78-1.07,1.82-2.28,3.65-2.52,5.76ZM1257.74,150.3c-4.21,5.28-9.2,10.47-15.09,15.28.47-1.11.73-2.32.73-3.6,0-1.91-.58-3.67-1.57-5.14.19.02.38.03.57.03.77,0,1.49-.16,2.16-.44,0,0,.09-.04.25-.12.09-.04.18-.09.27-.13,1.74-.87,7.69-4.04,14.48-9.66-.71,1.21-1.5,2.42-1.79,3.78ZM1342.98,193.52h-10.45c-3.32-3.25-6.38-6.58-9.18-9.96-.23-2.12-1.45-3.94-2.52-5.76,9.14,7.57,17.16,11.84,19.5,13.01.12.07.24.12.37.18.21.1.33.16.33.16.89.38,1.87.59,2.91.59.79,0,1.55-.12,2.26-.35-1.06.72-2.13,1.43-3.22,2.13ZM1488.24,177.36c-.06.02-.11.06-.16.08-5.79-5.27-10.98-10.76-15.6-16.33-.29-2.61-1.79-4.86-3.1-7.1,11.27,9.33,21.14,14.59,24.03,16.04.15.08.3.15.45.22.26.13.41.2.41.2,1.1.47,2.31.72,3.58.72.34,0,.67-.02,1-.06-3.3,2.21-6.82,4.3-10.61,6.23ZM1511.62,183.56c-2.05,2.47-4.23,4.91-6.56,7.32-1.58-1.09-3.13-2.19-4.64-3.31,3.64-2.21,8.49-5.45,13.71-9.78-1.07,1.82-2.28,3.65-2.52,5.76ZM1521.41,150.3c-4.21,5.28-9.2,10.47-15.09,15.28.47-1.11.73-2.32.73-3.6,0-1.91-.58-3.67-1.57-5.14.19.02.38.03.57.03.77,0,1.49-.16,2.16-.44,0,0,.09-.04.25-.12.09-.04.18-.09.27-.13,1.74-.87,7.69-4.04,14.48-9.66-.71,1.21-1.5,2.42-1.79,3.78ZM1577.24,150.3c-.29-1.36-1.08-2.58-1.79-3.78,6.79,5.62,12.74,8.79,14.48,9.66.09.05.18.09.27.13.16.08.25.12.25.12.63.27,1.33.41,2.06.43-.99,1.46-1.57,3.22-1.57,5.12,0,1.01.2,1.96.5,2.87-5.5-4.6-10.2-9.54-14.19-14.55ZM1593.31,190.55c-2.21-2.31-4.32-4.63-6.28-6.99-.23-2.12-1.45-3.94-2.52-5.76,5.06,4.19,9.74,7.34,13.34,9.54-1.47,1.09-3.01,2.16-4.54,3.22ZM1625.5,161.1c-4.56,5.49-9.67,10.9-15.36,16.11-3.66-1.88-7.08-3.91-10.28-6.05.09,0,.18.03.27.03,1.27,0,2.48-.26,3.58-.72,0,0,.14-.07.41-.2.15-.07.3-.14.45-.22,2.89-1.45,12.77-6.71,24.03-16.04-1.31,2.24-2.81,4.49-3.1,7.1ZM1734.2,177.36c-.06.02-.11.06-.16.08-5.79-5.27-10.98-10.76-15.6-16.33-.29-2.61-1.79-4.86-3.1-7.1,11.27,9.33,21.14,14.59,24.03,16.04.15.08.3.15.45.22.26.13.41.2.41.2,1.1.47,2.31.72,3.58.72.34,0,.67-.02,1-.06-3.3,2.21-6.82,4.3-10.61,6.23ZM1757.58,183.56c-2.05,2.47-4.23,4.91-6.56,7.32-1.58-1.09-3.13-2.19-4.64-3.31,3.64-2.21,8.49-5.45,13.71-9.78-1.07,1.82-2.28,3.65-2.52,5.76ZM1767.37,150.3c-4.21,5.28-9.2,10.47-15.09,15.28.47-1.11.73-2.32.73-3.6,0-1.91-.58-3.67-1.57-5.14.19.02.38.03.57.03.77,0,1.49-.16,2.16-.44,0,0,.09-.04.25-.12.09-.04.18-.09.27-.13,1.74-.87,7.69-4.04,14.48-9.66-.71,1.21-1.5,2.42-1.79,3.78ZM1852.62,193.52h-10.45c-3.32-3.25-6.38-6.58-9.18-9.96-.23-2.12-1.45-3.94-2.52-5.76,9.14,7.57,17.16,11.84,19.5,13.01.12.07.24.12.37.18.21.1.33.16.33.16.89.38,1.87.59,2.91.59.79,0,1.55-.12,2.26-.35-1.06.72-2.13,1.43-3.22,2.13ZM1997.87,177.36c-.06.02-.11.06-.16.08-5.79-5.27-10.98-10.76-15.6-16.33-.29-2.61-1.79-4.86-3.1-7.1,11.27,9.33,21.14,14.59,24.03,16.04.15.08.3.15.45.22.26.13.41.2.41.2,1.1.47,2.31.72,3.58.72.34,0,.67-.02,1-.06-3.3,2.21-6.82,4.3-10.61,6.23ZM2021.25,183.56c-2.05,2.47-4.23,4.91-6.56,7.32-1.58-1.09-3.13-2.19-4.64-3.31,3.64-2.21,8.49-5.45,13.71-9.78-1.07,1.82-2.28,3.65-2.52,5.76ZM2031.05,150.3c-4.21,5.28-9.2,10.47-15.09,15.28.47-1.11.73-2.32.73-3.6,0-1.91-.58-3.67-1.57-5.14.19.02.38.03.57.03.77,0,1.49-.16,2.16-.44,0,0,.09-.04.25-.12.09-.04.18-.09.27-.13,1.74-.87,7.69-4.04,14.48-9.66-.71,1.21-1.5,2.42-1.79,3.78ZM2116.29,193.52h-10.45c-3.32-3.25-6.38-6.58-9.18-9.96-.23-2.12-1.45-3.94-2.52-5.76,9.14,7.57,17.16,11.84,19.5,13.01.12.07.24.12.37.18.21.1.33.16.33.16.89.38,1.87.59,2.91.59.79,0,1.55-.12,2.26-.35-1.06.72-2.13,1.43-3.22,2.13ZM2261.55,177.36c-.06.02-.1.06-.16.08-5.79-5.27-10.98-10.76-15.6-16.33-.29-2.61-1.79-4.86-3.1-7.1,11.27,9.33,21.14,14.59,24.03,16.04.15.08.3.15.45.22.26.13.41.2.41.2,1.1.47,2.31.72,3.58.72.34,0,.67-.02,1-.06-3.3,2.21-6.82,4.3-10.61,6.23ZM2278.37,190.88c-1.58-1.09-3.13-2.19-4.64-3.31,3.64-2.21,8.49-5.45,13.71-9.78-1.07,1.82-2.28,3.65-2.52,5.76-2.05,2.47-4.23,4.91-6.56,7.32Z"/>
  <rect class="st0" x="-65.91" y="190.88" width="109.07" height="315.76"/>
</svg>