<?xml version="1.0" encoding="UTF-8"?>
<svg id="Camada_1" xmlns="http://www.w3.org/2000/svg" version="1.1" xmlns:xlink="http://www.w3.org/1999/xlink" viewBox="0 0 500 500">
  <!-- Generator: Adobe Illustrator 29.0.1, SVG Export Plug-In . SVG Version: 2.1.0 Build 192)  -->
  <defs>
    <style>
      .st0 {
        fill: #00337c;
      }

      .st1 {
        fill: #0032ab;
      }

      .st2 {
        fill: none;
      }

      .st3 {
        fill: #ff654d;
      }

      .st4 {
        fill: #ff914d;
      }

      .st5 {
        fill: #1a75ce;
      }

      .st6 {
        fill: #ffbd59;
      }

      .st7 {
        clip-path: url(#clippath);
      }
    </style>
    <clipPath id="clippath">
      <rect class="st2" x="76.3" y="190" width="347.41" height="119.99"/>
    </clipPath>
  </defs>
  <g class="st7">
    <g>
      <polygon class="st4" points="336.46 270 336.46 230 356.46 250 376.46 270 336.46 270"/>
      <polygon class="st4" points="296.46 429.99 296.46 389.99 316.46 409.99 336.46 429.99 296.46 429.99"/>
      <polygon class="st3" points="136.47 429.99 136.47 389.99 156.47 409.99 176.47 429.99 136.47 429.99"/>
      <polygon class="st4" points="336.46 270 296.46 270 316.46 250 336.46 230 336.46 270"/>
      <polygon class="st4" points="296.46 310 256.46 310 276.46 290 296.46 270 296.46 310"/>
      <polygon class="st4" points="376.46 310 376.46 270 396.46 290 416.46 310 376.46 310"/>
      <polygon class="st3" points="176.47 230 176.47 190 196.47 210 216.47 230 176.47 230"/>
      <polygon class="st6" points="376.46 509.99 376.46 469.99 396.46 489.99 416.46 509.99 376.46 509.99"/>
      <polygon class="st4" points="256.46 230 216.47 230 236.47 210 256.46 190 256.46 230"/>
      <polygon class="st4" points="296.46 270 336.46 270 316.46 290 296.46 310 296.46 270"/>
      <polygon class="st4" points="256.46 389.99 296.46 389.99 276.46 409.99 256.46 429.99 256.46 389.99"/>
      <polygon class="st6" points="336.46 310 296.46 310 316.46 290 336.46 270 336.46 310"/>
      <polygon class="st6" points="336.46 310 336.46 270 356.46 290 376.46 310 336.46 310"/>
      <polygon class="st4" points="376.46 270 376.46 310 356.46 290 336.46 270 376.46 270"/>
      <path class="st4" d="M214.33,310c-20.91,0-37.86,16.95-37.86,37.86v2.14h2.14c20.91,0,37.86-16.95,37.86-37.86v-2.14h-2.14Z"/>
      <path class="st6" d="M214.33,429.99h2.14v2.14c0,20.9-16.96,37.86-37.86,37.86h-2.14v-2.14c0-20.9,16.96-37.86,37.86-37.86Z" transform="translate(646.46 253.52) rotate(90)"/>
      <path class="st3" d="M414.32,389.99h2.14v2.14c0,20.9-16.96,37.86-37.86,37.86h-2.14v-2.14c0-20.9,16.96-37.86,37.86-37.86Z" transform="translate(792.91 819.98) rotate(-180)"/>
      <rect class="st3" x="216.47" y="150.01" width="40" height="40"/>
      <rect class="st0" x="176.47" y="469.99" width="40" height="40"/>
      <rect class="st4" x="136.47" y="190" width="40" height="40"/>
      <rect class="st5" x="136.47" y="270" width="40" height="40"/>
      <rect class="st3" x="296.46" y="310" width="40" height="40"/>
      <rect class="st4" x="176.47" y="389.99" width="40" height="40"/>
      <rect class="st0" x="216.47" y="270" width="40" height="40"/>
      <rect class="st0" x="336.46" y="429.99" width="40" height="40"/>
      <path class="st5" d="M336.46,469.99h-40v2.14c0,20.91,16.95,37.86,37.86,37.86h4.28c20.91,0,37.86-16.95,37.86-37.86v-2.14h-40Z"/>
      <path class="st1" d="M296.46,310v40s-2.14,0-2.14,0c-20.91,0-37.86-16.95-37.86-37.86v-2.14s40,0,40,0Z"/>
      <path class="st0" d="M296.46,190h-40s0-2.14,0-2.14c0-20.91,16.95-37.86,37.86-37.86h2.14s0,40,0,40Z"/>
      <path class="st0" d="M296.46,190v-40s2.14,0,2.14,0c20.91,0,37.86,16.95,37.86,37.86v2.14s-40,0-40,0Z"/>
      <path class="st5" d="M176.47,190h-40s0-2.14,0-2.14c0-20.91,16.95-37.86,37.86-37.86h2.14s0,40,0,40Z"/>
      <path class="st3" d="M136.47,310v2.14c0,20.91,16.95,37.86,37.86,37.86h2.14v-40h-40Z"/>
      <path class="st5" d="M378.6,190h-2.14v40h40v-2.14c0-20.91-16.95-37.86-37.86-37.86Z"/>
      <path class="st4" d="M176.47,230v2.14c0,20.91,16.95,37.86,37.86,37.86h2.14v-40h-40Z"/>
      <polygon class="st5" points="156.47 349.99 176.47 389.99 136.47 389.99 156.47 349.99 156.47 349.99"/>
      <polygon class="st6" points="236.47 349.99 216.47 310 256.46 310 236.47 349.99 236.47 349.99"/>
      <polygon class="st4" points="236.47 330 226.47 310 246.46 310 236.47 330 236.47 330"/>
      <polygon class="st3" points="276.46 469.99 256.46 429.99 296.46 429.99 276.46 469.99 276.46 469.99"/>
      <polygon class="st0" points="276.46 449.99 266.46 429.99 286.46 429.99 276.46 449.99 276.46 449.99"/>
      <polygon class="st6" points="216.47 170 176.47 190 176.47 150.01 216.47 170 216.47 170"/>
      <polygon class="st4" points="196.47 170 176.47 180 176.47 160 196.47 170 196.47 170"/>
      <polygon class="st6" points="416.46 369.99 376.46 389.99 376.46 349.99 416.46 369.99 416.46 369.99"/>
      <polygon class="st3" points="396.46 369.99 376.46 379.99 376.46 359.99 396.46 369.99 396.46 369.99"/>
      <rect class="st4" x="336.46" y="150.01" width="40" height="40" rx="18.93" ry="18.93"/>
      <rect class="st5" x="296.46" y="349.99" width="40" height="40" rx="18.93" ry="18.93"/>
      <rect class="st0" x="336.46" y="389.99" width="40" height="40" rx="18.93" ry="18.93"/>
      <rect class="st5" x="296.46" y="429.99" width="40" height="40" rx="18.93" ry="18.93"/>
      <rect class="st0" x="136.47" y="230" width="40" height="40" rx="18.93" ry="18.93"/>
      <path class="st5" d="M376.46,190h0v-20s0,0,0,0c11.04,0,20-8.95,20-20h0s20,0,20,0h0c0,22.09-17.91,40-40,40Z"/>
      <path class="st0" d="M376.46,170h0s0-20,0-20h20s0,0,0,0c0,11.04-8.95,20-20,20Z"/>
      <path class="st0" d="M256.46,389.99c-22.09,0-40,17.91-40,40h0s20,0,20,0c0-11.04,8.95-20,20-20h0v-20h0Z"/>
      <path class="st5" d="M256.46,409.99c-11.04,0-20,8.95-20,20h20v-20h0Z"/>
      <path class="st5" d="M256.46,449.99c-11.04,0-20-8.95-20-20h0s-20,0-20,0h0c0,22.09,17.91,40,40,40h0v-20h0Z"/>
      <path class="st0" d="M236.47,429.99h0c0,11.05,8.95,20,20,20h0v-20h-20Z"/>
      <path class="st3" d="M136.47,469.99h0s20,0,20,0h0c0,11.05,8.95,20,20,20h0v20h0c-22.09,0-40-17.91-40-40Z"/>
      <path class="st4" d="M156.47,469.99h0s20,0,20,0v20h0c-11.04,0-20-8.95-20-20Z"/>
      <path class="st6" d="M416.46,349.99h0s-20,0-20,0h0c0-11.05-8.95-20-20-20h0v-20h0c22.09,0,40,17.91,40,40Z"/>
      <path class="st3" d="M396.45,349.99h0s-20,0-20,0v-20h0c11.04,0,20,8.95,20,20Z"/>
      <rect class="st4" x="256.46" y="230" width="40" height="40"/>
      <rect class="st6" x="264.89" y="238.43" width="23.15" height="23.15" transform="translate(526.46 -26.46) rotate(90)"/>
      <rect class="st0" x="256.46" y="469.99" width="40" height="40"/>
      <rect class="st3" x="264.89" y="478.41" width="23.15" height="23.15" transform="translate(766.45 213.52) rotate(90)"/>
      <rect class="st4" x="376.46" y="230" width="40" height="40" rx="18.93" ry="18.93"/>
      <path class="st1" d="M396.46,261.57c-6.38,0-11.57-5.19-11.57-11.57,0-6.38,5.19-11.57,11.57-11.57,6.38,0,11.57,5.19,11.57,11.57,0,6.38-5.19,11.57-11.57,11.57Z"/>
      <rect class="st0" x="136.47" y="429.99" width="40" height="40" rx="18.93" ry="18.93"/>
      <path class="st4" d="M156.47,438.41c-6.38,0-11.57,5.19-11.57,11.57s5.19,11.57,11.57,11.57,11.57-5.19,11.57-11.57-5.19-11.57-11.57-11.57Z"/>
      <rect class="st0" x="336.46" y="310" width="40" height="40" rx="18.93" ry="18.93"/>
      <path class="st5" d="M356.46,341.57c-6.38,0-11.57-5.19-11.57-11.57s5.19-11.57,11.57-11.57c6.38,0,11.57,5.19,11.57,11.57s-5.19,11.57-11.57,11.57Z"/>
      <path class="st3" d="M216.47,349.99v10h0c5.52,0,10,4.48,10,10h0c0,5.52-4.48,10-10,10h0v10s40-20,40-20l-40-20Z"/>
      <path class="st6" d="M216.47,389.99v-10h0c-5.52,0-10-4.48-10-10h0c0-5.52,4.48-10,10-10h0v-10s-40,20-40,20l40,20Z"/>
      <path class="st5" d="M296.46,230v-10h0c-5.52,0-10-4.48-10-10h0c0-5.52,4.48-10,10-10h0v-10s-40,20-40,20l40,20Z"/>
      <path class="st1" d="M296.46,190v10h0c5.52,0,10,4.48,10,10h0c0,5.52-4.48,10-10,10h0v10s40-20,40-20l-40-20Z"/>
      <path class="st6" d="M374.76,205.22c-1.66-2.13-4.08-3.2-6.5-3.2-2.1,0-4.19.8-5.79,2.4,3.2-3.2,3.2-8.39,0-11.59-1.6-1.6-3.69-2.4-5.79-2.4s-4.2.8-5.8,2.4c-1.6,1.6-2.4,3.69-2.4,5.79s.8,4.19,2.4,5.79c-1.6-1.6-3.7-2.4-5.79-2.4s-4.19.8-5.79,2.4-2.4,3.7-2.4,5.79.8,4.2,2.4,5.8,3.7,2.4,5.79,2.4,4.19-.8,5.79-2.4c-1.6,1.6-2.4,3.7-2.4,5.79s.8,4.19,2.4,5.79,3.7,2.4,5.8,2.4,4.19-.8,5.79-2.4c3.2-3.2,3.2-8.39,0-11.59,1.6,1.6,3.69,2.4,5.79,2.4,2.43,0,4.84-1.07,6.5-3.2,2.26-2.91,2.26-7.08,0-9.99Z"/>
      <path class="st3" d="M214.75,284.95c-1.68-2.16-4.12-3.24-6.57-3.24-2.12,0-4.24.81-5.86,2.43,3.23-3.23,3.23-8.48,0-11.71-1.62-1.62-3.73-2.43-5.86-2.43s-4.25.81-5.86,2.43-2.43,3.73-2.43,5.86.81,4.24,2.43,5.86c-1.62-1.62-3.74-2.43-5.86-2.43s-4.24.81-5.86,2.43c-1.62,1.62-2.43,3.74-2.43,5.86s.81,4.25,2.43,5.86c1.62,1.62,3.74,2.43,5.86,2.43s4.24-.81,5.86-2.43c-1.62,1.62-2.43,3.74-2.43,5.86s.81,4.24,2.43,5.86,3.74,2.43,5.86,2.43,4.24-.81,5.86-2.43c3.23-3.23,3.23-8.48,0-11.71,1.62,1.62,3.73,2.43,5.86,2.43,2.45,0,4.9-1.08,6.57-3.24,2.28-2.94,2.28-7.16,0-10.1Z"/>
      <path class="st0" d="M294.75,375.04c-1.68,2.16-4.12,3.24-6.57,3.24-2.12,0-4.24-.81-5.86-2.43,3.23,3.23,3.23,8.48,0,11.71-1.62,1.62-3.73,2.43-5.86,2.43-2.12,0-4.25-.81-5.86-2.43-1.62-1.62-2.43-3.74-2.43-5.86,0-2.12.81-4.24,2.43-5.86-1.62,1.62-3.74,2.43-5.86,2.43-2.12,0-4.24-.81-5.86-2.43-1.62-1.62-2.43-3.74-2.43-5.86,0-2.12.81-4.24,2.43-5.86,1.62-1.62,3.74-2.43,5.86-2.43s4.24.81,5.86,2.43c-1.62-1.62-2.43-3.73-2.43-5.86,0-2.12.81-4.24,2.43-5.86,1.62-1.62,3.74-2.43,5.86-2.43s4.24.81,5.86,2.43c3.23,3.23,3.23,8.48,0,11.71,1.62-1.62,3.73-2.43,5.86-2.43,2.45,0,4.9,1.08,6.57,3.24,2.28,2.94,2.28,7.16,0,10.1Z"/>
      <path class="st6" d="M414.74,455.04c-1.68,2.16-4.12,3.24-6.57,3.24-2.12,0-4.24-.81-5.86-2.43,3.23,3.23,3.23,8.48,0,11.71-1.62,1.62-3.73,2.43-5.86,2.43s-4.25-.81-5.86-2.43-2.43-3.74-2.43-5.86c0-2.12.81-4.24,2.43-5.86-1.62,1.62-3.74,2.43-5.86,2.43-2.12,0-4.24-.81-5.86-2.43-1.62-1.62-2.43-3.74-2.43-5.86,0-2.12.81-4.24,2.43-5.86,1.62-1.62,3.74-2.43,5.86-2.43s4.24.81,5.86,2.43c-1.62-1.62-2.43-3.73-2.43-5.86,0-2.12.81-4.24,2.43-5.86,1.62-1.62,3.74-2.43,5.86-2.43s4.24.81,5.86,2.43c3.23,3.23,3.23,8.48,0,11.71,1.62-1.62,3.73-2.43,5.86-2.43,2.45,0,4.9,1.08,6.57,3.24,2.28,2.94,2.28,7.16,0,10.1Z"/>
      <circle class="st6" cx="271.46" cy="180" r="5"/>
      <path class="st0" d="M256.46,469.99v40s-2.14,0-2.14,0c-20.91,0-37.86-16.95-37.86-37.86v-2.14s40,0,40,0Z"/>
      <circle class="st6" cx="246.46" cy="494.99" r="5"/>
      <path class="st3" d="M374.32,349.99h2.14v40h-40v-2.14c0-20.9,16.96-37.86,37.86-37.86Z"/>
      <circle class="st0" cx="351.46" cy="379.99" r="5"/>
      <circle class="st0" cx="201.47" cy="245" r="5"/>
      <path class="st3" d="M216.47,230v40h2.14c20.91,0,37.86-16.95,37.86-37.86v-2.14h-40Z"/>
      <circle class="st0" cx="231.47" cy="245" r="5"/>
    </g>
  </g>
</svg>